<svg width="32" height="30" viewBox="0 0 32 30" fill="none" xmlns="http://www.w3.org/2000/svg">
<g clip-path="url(#clip0_823_329)">
<path d="M0.671352 13.8193C-0.221505 14.5166 -0.221505 15.649 0.671352 16.3462L12.0999 25.2712C12.9928 25.9685 14.4428 25.9685 15.3356 25.2712C16.2285 24.574 16.2285 23.4416 15.3356 22.7443L7.79992 16.865H29.7142C30.9785 16.865 31.9999 16.0673 31.9999 15.08C31.9999 14.0927 30.9785 13.295 29.7142 13.295H7.80707L15.3285 7.41565C16.2214 6.71839 16.2214 5.58603 15.3285 4.88876C14.4356 4.1915 12.9856 4.1915 12.0928 4.88876L0.664209 13.8138L0.671352 13.8193Z" fill="#31304D"/>
</g>
<defs>
<clipPath id="clip0_823_329">
<rect width="32" height="28.56" fill="white" transform="translate(0 0.799988)"/>
</clipPath>
</defs>
</svg>
