<svg width="106" height="32" viewBox="0 0 106 32" fill="none" xmlns="http://www.w3.org/2000/svg">
<g clip-path="url(#clip0)">
<path d="M101.323 31.6388H4.2768C2.1384 31.6388 0.395996 29.8855 0.395996 27.7533V4.43173C0.395996 2.29076 2.1472 0.546265 4.2768 0.546265H101.323C103.462 0.546265 105.204 2.29957 105.204 4.43173V27.7533C105.204 29.8855 103.462 31.6388 101.323 31.6388Z" fill="black"/>
<path d="M101.323 1.163C103.118 1.163 104.588 2.62556 104.588 4.43173V27.7533C104.588 29.5507 103.127 31.022 101.323 31.022H4.2768C2.4816 31.022 1.012 29.5595 1.012 27.7533V4.43173C1.012 2.63437 2.4728 1.163 4.2768 1.163H101.323ZM101.323 0.546265H4.2768C2.1384 0.546265 0.395996 2.29957 0.395996 4.43173V27.7533C0.395996 29.8943 2.1472 31.6388 4.2768 31.6388H101.323C103.462 31.6388 105.204 29.8855 105.204 27.7533V4.43173C105.204 2.29076 103.462 0.546265 101.323 0.546265Z" fill="#A6A6A6"/>
<path d="M53.2927 17.4537C51.4623 17.4537 49.9751 18.8458 49.9751 20.7577C49.9751 22.6608 51.4623 24.0616 53.2927 24.0616C55.1231 24.0616 56.6103 22.6608 56.6103 20.7577C56.6103 18.837 55.1231 17.4537 53.2927 17.4537ZM53.2927 22.7577C52.2895 22.7577 51.4271 21.9295 51.4271 20.7577C51.4271 19.5682 52.2895 18.7577 53.2927 18.7577C54.2959 18.7577 55.1583 19.5682 55.1583 20.7577C55.1583 21.9295 54.2959 22.7577 53.2927 22.7577ZM46.0591 17.4537C44.2287 17.4537 42.7415 18.8458 42.7415 20.7577C42.7415 22.6608 44.2287 24.0616 46.0591 24.0616C47.8895 24.0616 49.3767 22.6608 49.3767 20.7577C49.3767 18.837 47.8895 17.4537 46.0591 17.4537ZM46.0591 22.7577C45.0559 22.7577 44.1935 21.9295 44.1935 20.7577C44.1935 19.5682 45.0559 18.7577 46.0591 18.7577C47.0623 18.7577 47.9247 19.5682 47.9247 20.7577C47.9247 21.9295 47.0623 22.7577 46.0591 22.7577ZM37.4615 18.4669V19.8678H40.8143C40.7175 20.6608 40.4535 21.2334 40.0487 21.6299C39.5647 22.1145 38.7991 22.6608 37.4615 22.6608C35.3935 22.6608 33.7831 20.9956 33.7831 18.9251C33.7831 16.8546 35.3935 15.1894 37.4615 15.1894C38.5791 15.1894 39.3887 15.6299 39.9871 16.1938L40.9727 15.207C40.1367 14.4053 39.0191 13.7885 37.4615 13.7885C34.6367 13.7885 32.2607 16.0969 32.2607 18.9251C32.2607 21.7533 34.6367 24.0616 37.4615 24.0616C38.9839 24.0616 40.1367 23.5594 41.0431 22.6255C41.9671 21.7004 42.2575 20.3964 42.2575 19.348C42.2575 19.022 42.2311 18.7224 42.1783 18.4757H37.4615V18.4669ZM72.6351 19.5506C72.3623 18.8105 71.5263 17.4449 69.8103 17.4449C68.1119 17.4449 66.6951 18.7841 66.6951 20.7489C66.6951 22.5991 68.0943 24.0528 69.9688 24.0528C71.4823 24.0528 72.3535 23.1277 72.7231 22.5903L71.5967 21.8414C71.2183 22.3964 70.708 22.7577 69.9688 22.7577C69.2295 22.7577 68.7015 22.4229 68.3671 21.7533L72.7847 19.9207L72.6351 19.5506ZM68.1383 20.6608C68.1031 19.3832 69.1239 18.7312 69.8631 18.7312C70.4351 18.7312 70.9279 19.022 71.0863 19.4361L68.1383 20.6608ZM64.5479 23.859H65.9999V14.1409H64.5479V23.859ZM62.1719 18.1938H62.1191C61.7935 17.8061 61.1687 17.4537 60.3767 17.4537C58.7223 17.4537 57.2087 18.9075 57.2087 20.7753C57.2087 22.6255 58.7223 24.0705 60.3767 24.0705C61.1687 24.0705 61.7935 23.718 62.1191 23.3216H62.1719V23.7885C62.1719 25.0572 61.4943 25.7268 60.4119 25.7268C59.5231 25.7268 58.9775 25.0925 58.7487 24.5462L57.4815 25.0749C57.8423 25.9471 58.8103 27.0308 60.4119 27.0308C62.1103 27.0308 63.5535 26.0264 63.5535 23.5859V17.6475H62.1807V18.1938H62.1719ZM60.5087 22.7577C59.5055 22.7577 58.6695 21.9207 58.6695 20.7665C58.6695 19.6035 59.5055 18.7489 60.5087 18.7489C61.4943 18.7489 62.2687 19.6035 62.2687 20.7665C62.2687 21.9207 61.4943 22.7577 60.5087 22.7577ZM79.4375 14.1409H75.9703V23.859H77.4224V20.1762H79.4463C81.0479 20.1762 82.632 19.0132 82.632 17.1542C82.632 15.2951 81.0391 14.1409 79.4375 14.1409ZM79.4727 18.8282H77.4135V15.4978H79.4727C80.5551 15.4978 81.1711 16.3964 81.1711 17.163C81.1711 17.9119 80.5551 18.8282 79.4727 18.8282ZM88.4224 17.4361C87.3752 17.4361 86.284 17.9031 85.8352 18.9251L87.1199 19.4625C87.3927 18.9251 87.9031 18.7489 88.4399 18.7489C89.188 18.7489 89.9536 19.1982 89.9624 20V20.0969C89.6984 19.9471 89.1352 19.718 88.4488 19.718C87.0583 19.718 85.6504 20.4845 85.6504 21.9031C85.6504 23.207 86.7855 24.044 88.0616 24.044C89.0383 24.044 89.5751 23.6035 89.9095 23.0925H89.9624V23.8414H91.3616V20.1145C91.3704 18.3964 90.0856 17.4361 88.4224 17.4361ZM88.2463 22.7577C87.7711 22.7577 87.1111 22.5198 87.1111 21.9295C87.1111 21.1806 87.9384 20.8898 88.6511 20.8898C89.2848 20.8898 89.584 21.0308 89.9711 21.2158C89.8568 22.1233 89.0911 22.7577 88.2463 22.7577ZM96.4656 17.6475L94.8024 21.859H94.7495L93.0248 17.6475H91.4671L94.0544 23.533L92.5848 26.8105H94.0984L98.0848 17.6475H96.4656ZM83.4151 23.859H84.8672V14.1409H83.4151V23.859Z" fill="white"/>
<path d="M8.49165 6.4053C8.27165 6.64319 8.13965 7.01323 8.13965 7.49781V24.6872C8.13965 25.1718 8.27165 25.5419 8.50045 25.7798L8.56205 25.8326L18.1804 16.2027V16.0881V15.9736L8.55325 6.34363L8.49165 6.4053Z" fill="url(#paint0_linear)"/>
<path d="M21.3751 19.4185L18.1719 16.2115V16.0969V15.9824L21.3751 12.7753L21.4455 12.8194L25.2471 14.978C26.3295 15.5947 26.3295 16.6079 25.2471 17.2247L21.4455 19.3833L21.3751 19.4185Z" fill="url(#paint1_linear)"/>
<path d="M21.4541 19.3745L18.1717 16.0881L8.4917 25.7798C8.8525 26.1586 9.4421 26.2027 10.1021 25.8238L21.4541 19.3745Z" fill="url(#paint2_linear)"/>
<path d="M21.4541 12.8106L10.1109 6.35243C9.44209 5.97357 8.85249 6.01763 8.50049 6.39648L18.1805 16.0881L21.4541 12.8106Z" fill="url(#paint3_linear)"/>
<path opacity="0.2" d="M21.3749 19.304L10.1021 25.7181C9.46851 26.0793 8.90531 26.0529 8.54451 25.7269L8.48291 25.7885L8.54451 25.8414C8.90531 26.1674 9.46851 26.1938 10.1021 25.8326L21.4453 19.3833L21.3749 19.304Z" fill="black"/>
<path opacity="0.12" d="M8.49166 25.6652C8.26286 25.4273 8.13086 25.0573 8.13086 24.5727V24.6872C8.13086 25.1718 8.26286 25.5419 8.49166 25.7797L8.55326 25.7181L8.49166 25.6652Z" fill="black"/>
<path opacity="0.12" d="M25.247 17.1013L21.375 19.304L21.4454 19.3745L25.247 17.2159C25.7926 16.9075 26.0566 16.5022 26.0566 16.0969C26.0214 16.4582 25.7398 16.8194 25.247 17.1013Z" fill="black"/>
<path opacity="0.25" d="M10.1113 6.46701L25.2561 15.0838C25.7489 15.3657 26.0217 15.7269 26.0657 16.0882C26.0657 15.6829 25.7929 15.2776 25.2561 14.9692L10.1113 6.35247C9.02894 5.73573 8.14014 6.24675 8.14014 7.48904V7.60357C8.14014 6.36128 9.02014 5.85027 10.1113 6.46701Z" fill="white"/>
<path d="M32.8062 10.7401V6.15857H34.2054C34.9094 6.15857 35.4726 6.37002 35.895 6.79293C36.3174 7.21584 36.5286 7.7709 36.5286 8.44932C36.5286 9.12773 36.3174 9.6828 35.895 10.1057C35.4726 10.5286 34.9094 10.7401 34.2054 10.7401H32.8062ZM33.387 10.185H34.1966C34.7246 10.185 35.147 10.0352 35.455 9.72685C35.763 9.42729 35.9214 8.99557 35.9214 8.44932C35.9214 7.91187 35.763 7.48015 35.455 7.1806C35.147 6.87223 34.7246 6.72245 34.1966 6.72245H33.387V10.185Z" fill="white" stroke="white" stroke-width="0.2" stroke-miterlimit="10"/>
<path d="M37.3472 10.7401V6.15857H37.9368V10.7401H37.3472Z" fill="white" stroke="white" stroke-width="0.2" stroke-miterlimit="10"/>
<path d="M40.2774 10.8458C39.943 10.8458 39.6174 10.7401 39.3006 10.5198C38.9838 10.2995 38.7726 9.99997 38.6758 9.60349L39.2126 9.38323C39.2742 9.63874 39.4062 9.85019 39.6086 10.0176C39.811 10.1938 40.031 10.2731 40.2774 10.2731C40.5326 10.2731 40.7526 10.2026 40.9286 10.0705C41.1134 9.9383 41.2014 9.75327 41.2014 9.5242C41.2014 9.26869 41.1134 9.07486 40.9286 8.93389C40.7438 8.79292 40.4622 8.66957 40.0662 8.54623C39.6614 8.42288 39.3534 8.25548 39.1422 8.05283C38.931 7.85019 38.8254 7.59468 38.8254 7.2775C38.8254 6.95151 38.9574 6.66076 39.2126 6.42288C39.4766 6.17618 39.811 6.06165 40.2246 6.06165C40.6118 6.06165 40.9286 6.15856 41.1662 6.35239C41.4126 6.54623 41.571 6.75768 41.6414 6.98676L41.1046 7.20702C41.0694 7.06605 40.9726 6.92508 40.823 6.80173C40.6734 6.67839 40.4798 6.61671 40.2334 6.61671C40.0046 6.61671 39.811 6.67839 39.6526 6.80173C39.4942 6.92508 39.415 7.08367 39.415 7.26869C39.415 7.43609 39.4854 7.58587 39.635 7.70041C39.7846 7.81495 39.9958 7.92068 40.2862 8.01759C40.515 8.08808 40.6998 8.15856 40.8494 8.22905C40.999 8.29953 41.1574 8.38764 41.307 8.50217C41.4654 8.61671 41.5798 8.75768 41.659 8.92508C41.7382 9.09248 41.7734 9.28631 41.7734 9.50658C41.7734 9.72684 41.7294 9.92949 41.6326 10.1057C41.5446 10.2819 41.4214 10.4229 41.2718 10.5198C41.1222 10.6255 40.955 10.696 40.779 10.7489C40.6382 10.8194 40.4534 10.8458 40.2774 10.8458Z" fill="white" stroke="white" stroke-width="0.2" stroke-miterlimit="10"/>
<path d="M43.2341 10.7401H42.6445V6.15857H44.2021C44.5893 6.15857 44.9237 6.29073 45.2053 6.54623C45.4869 6.80174 45.6277 7.12773 45.6277 7.52421C45.6277 7.92068 45.4869 8.23786 45.2053 8.50218C44.9237 8.75769 44.5893 8.88985 44.2021 8.88985H43.2341V10.7401ZM43.2341 8.32597H44.2197C44.4661 8.32597 44.6685 8.24668 44.8181 8.07927C44.9677 7.91187 45.0381 7.72685 45.0381 7.53302C45.0381 7.33038 44.9677 7.14535 44.8181 6.98676C44.6685 6.81936 44.4749 6.74007 44.2197 6.74007H43.2341V8.32597Z" fill="white" stroke="white" stroke-width="0.2" stroke-miterlimit="10"/>
<path d="M50.1159 10.1498C49.6671 10.6167 49.1039 10.8458 48.4351 10.8458C47.7663 10.8458 47.2031 10.6167 46.7543 10.1498C46.3055 9.68281 46.0767 9.11894 46.0767 8.44933C46.0767 7.77973 46.2967 7.21585 46.7543 6.74889C47.2031 6.28193 47.7663 6.05286 48.4351 6.05286C49.1039 6.05286 49.6583 6.28193 50.1071 6.74889C50.5559 7.21585 50.7847 7.77973 50.7847 8.44052C50.7935 9.11894 50.5647 9.69162 50.1159 10.1498ZM47.1943 9.77092C47.5375 10.1145 47.9511 10.2819 48.4351 10.2819C48.9279 10.2819 49.3415 10.1145 49.6759 9.77092C50.0191 9.42731 50.1863 8.98678 50.1863 8.45814C50.1863 7.9207 50.0191 7.48898 49.6759 7.14537C49.3415 6.80175 48.9191 6.63435 48.4351 6.63435C47.9423 6.63435 47.5287 6.80175 47.1943 7.14537C46.8599 7.48898 46.6839 7.92951 46.6839 8.45814C46.6927 8.98678 46.8599 9.42731 47.1943 9.77092Z" fill="white" stroke="white" stroke-width="0.2" stroke-miterlimit="10"/>
<path d="M51.6206 10.7401V6.15857H52.3334L54.5598 9.72685H54.5862L54.5598 8.84579V6.15857H55.1494V10.7401H54.5334L52.2102 7.00438H52.1838L52.2102 7.88544V10.7401H51.6206Z" fill="white" stroke="white" stroke-width="0.2" stroke-miterlimit="10"/>
<path d="M56.1968 10.7401V6.15857H56.7864V10.7401H56.1968Z" fill="white" stroke="white" stroke-width="0.2" stroke-miterlimit="10"/>
<path d="M57.8335 10.7401V6.15857H59.4879C59.8487 6.15857 60.1567 6.27311 60.4207 6.51099C60.6759 6.75769 60.8079 7.04844 60.8079 7.40967C60.8079 7.62993 60.7551 7.82377 60.6407 7.98236C60.5263 8.14976 60.3767 8.27311 60.1919 8.36121V8.38764C60.4207 8.46694 60.6055 8.5991 60.7463 8.78412C60.8871 8.96914 60.9663 9.18941 60.9663 9.4361C60.9663 9.81496 60.8255 10.1233 60.5527 10.37C60.2799 10.6167 59.9543 10.7401 59.5759 10.7401H57.8335ZM58.4143 8.12333H59.4791C59.6991 8.12333 59.8751 8.05284 60.0159 7.90306C60.1479 7.75328 60.2183 7.59469 60.2183 7.41848C60.2183 7.24227 60.1567 7.08368 60.0247 6.94271C59.8927 6.80174 59.7255 6.72245 59.5143 6.72245H58.4231V8.12333H58.4143ZM58.4143 10.185H59.5935C59.8223 10.185 59.9983 10.1057 60.1391 9.94712C60.2799 9.78853 60.3503 9.62112 60.3503 9.42729C60.3503 9.24227 60.2799 9.06606 60.1303 8.91628C59.9895 8.75769 59.7959 8.67839 59.5583 8.67839H58.4055V10.185H58.4143Z" fill="white" stroke="white" stroke-width="0.2" stroke-miterlimit="10"/>
<path d="M61.7583 10.7401V6.15857H62.3479V10.1762H64.3279V10.7401H61.7583Z" fill="white" stroke="white" stroke-width="0.2" stroke-miterlimit="10"/>
<path d="M67.7333 6.72245H65.6477V8.17619H67.5309V8.72245H65.6477V10.1762H67.7333V10.7401H65.0581V6.15857H67.7333V6.72245Z" fill="white" stroke="white" stroke-width="0.2" stroke-miterlimit="10"/>
<path d="M72.8637 6.72245H70.7781V8.17619H72.6613V8.72245H70.7781V10.1762H72.8637V10.7401H70.1885V6.15857H72.8637V6.72245Z" fill="white" stroke="white" stroke-width="0.2" stroke-miterlimit="10"/>
<path d="M73.7788 10.7401V6.15857H74.4916L76.718 9.72685H76.7444L76.718 8.84579V6.15857H77.3076V10.7401H76.6916L74.3684 7.00438H74.342L74.3684 7.88544V10.7401H73.7788Z" fill="white" stroke="white" stroke-width="0.2" stroke-miterlimit="10"/>
</g>
<defs>
<linearGradient id="paint0_linear" x1="17.3186" y1="7.31297" x2="4.2733" y2="20.3426" gradientUnits="userSpaceOnUse">
<stop stop-color="#00A0FF"/>
<stop offset="0.00657445" stop-color="#00A1FF"/>
<stop offset="0.2601" stop-color="#00BEFF"/>
<stop offset="0.5122" stop-color="#00D2FF"/>
<stop offset="0.7604" stop-color="#00DFFF"/>
<stop offset="1" stop-color="#00E3FF"/>
</linearGradient>
<linearGradient id="paint1_linear" x1="26.6623" y1="16.0902" x2="7.87614" y2="16.0902" gradientUnits="userSpaceOnUse">
<stop stop-color="#FFE000"/>
<stop offset="0.4087" stop-color="#FFBD00"/>
<stop offset="0.7754" stop-color="#FFA500"/>
<stop offset="1" stop-color="#FF9C00"/>
</linearGradient>
<linearGradient id="paint2_linear" x1="19.6689" y1="17.8739" x2="1.97846" y2="35.5432" gradientUnits="userSpaceOnUse">
<stop stop-color="#FF3A44"/>
<stop offset="1" stop-color="#C31162"/>
</linearGradient>
<linearGradient id="paint3_linear" x1="6.0591" y1="0.679653" x2="13.9587" y2="8.56973" gradientUnits="userSpaceOnUse">
<stop stop-color="#32A071"/>
<stop offset="0.0685" stop-color="#2DA771"/>
<stop offset="0.4762" stop-color="#15CF74"/>
<stop offset="0.8009" stop-color="#06E775"/>
<stop offset="1" stop-color="#00F076"/>
</linearGradient>
<clipPath id="clip0">
<rect width="105.6" height="32" fill="white"/>
</clipPath>
</defs>
</svg>
