<svg width="24" height="24" viewBox="0 0 24 24" fill="none" xmlns="http://www.w3.org/2000/svg">
<path d="M12 14C12.55 14 13.0208 13.8042 13.4125 13.4125C13.8042 13.0208 14 12.55 14 12C14 11.45 13.8042 10.9792 13.4125 10.5875C13.0208 10.1958 12.55 10 12 10C11.45 10 10.9792 10.1958 10.5875 10.5875C10.1958 10.9792 10 11.45 10 12C10 12.55 10.1958 13.0208 10.5875 13.4125C10.9792 13.8042 11.45 14 12 14ZM12 21.35C14.0333 19.4833 15.5417 17.7875 16.525 16.2625C17.5083 14.7375 18 13.3833 18 12.2C18 10.3833 17.4208 8.89583 16.2625 7.7375C15.1042 6.57917 13.6833 6 12 6C10.3167 6 8.89583 6.57917 7.7375 7.7375C6.57917 8.89583 6 10.3833 6 12.2C6 13.3833 6.49167 14.7375 7.475 16.2625C8.45833 17.7875 9.96667 19.4833 12 21.35ZM12 24C9.31667 21.7167 7.3125 19.5958 5.9875 17.6375C4.6625 15.6792 4 13.8667 4 12.2C4 9.7 4.80417 7.70833 6.4125 6.225C8.02083 4.74167 9.88333 4 12 4C14.1167 4 15.9792 4.74167 17.5875 6.225C19.1958 7.70833 20 9.7 20 12.2C20 13.8667 19.3375 15.6792 18.0125 17.6375C16.6875 19.5958 14.6833 21.7167 12 24Z" fill="black"/>
</svg>
