<svg width="204" height="63" viewBox="0 0 204 63" fill="none" xmlns="http://www.w3.org/2000/svg">
<g filter="url(#filter0_d_65_115)">
<path d="M21.6481 43.32C20.5601 43.32 19.6428 43.16 18.8961 42.84C18.1708 42.4987 17.5841 42.04 17.1361 41.464C16.6881 40.8667 16.3575 40.184 16.1441 39.416C15.9308 38.6267 15.8241 37.7733 15.8241 36.856C15.8241 36.1093 15.8241 35.288 15.8241 34.392C15.8455 33.4747 15.8561 32.5573 15.8561 31.64C15.8561 30.7227 15.8561 29.9013 15.8561 29.176C15.8561 28.216 15.8561 27.2773 15.8561 26.36C15.8561 25.4427 15.8455 24.5253 15.8241 23.608C15.8241 22.6693 15.8028 21.7093 15.7601 20.728L19.6001 20.76C19.5788 21.464 19.5575 22.2107 19.5361 23C19.5148 23.768 19.4935 24.536 19.4721 25.304C19.4721 26.072 19.4615 26.808 19.4401 27.512C19.4401 28.1947 19.4401 28.8133 19.4401 29.368C19.4401 29.9867 19.4295 30.5947 19.4081 31.192C19.4081 31.7893 19.4081 32.3547 19.4081 32.888C19.4081 33.4213 19.4081 33.912 19.4081 34.36C19.4081 34.808 19.4081 35.192 19.4081 35.512C19.4081 36.536 19.4721 37.4 19.6001 38.104C19.7281 38.7867 19.9628 39.3093 20.3041 39.672C20.6455 40.0133 21.1255 40.184 21.7441 40.184C22.2135 40.184 22.5868 40.0667 22.8641 39.832C23.1628 39.576 23.3868 39.2453 23.5361 38.84C23.6855 38.4347 23.7815 37.976 23.8241 37.464C23.8668 36.952 23.8881 36.44 23.8881 35.928C23.8881 35.7147 23.8881 35.352 23.8881 34.84C23.9095 34.3067 23.9201 33.6027 23.9201 32.728C23.9201 31.832 23.9201 30.7333 23.9201 29.432C23.9201 28.0667 23.8988 26.8293 23.8561 25.72C23.8348 24.5893 23.8135 23.5867 23.7921 22.712C23.7708 21.816 23.7495 21.0373 23.7281 20.376L27.5681 20.408C27.5681 21.112 27.5575 21.7947 27.5361 22.456C27.5361 23.096 27.5255 23.7573 27.5041 24.44C27.5041 25.1227 27.4935 25.8693 27.4721 26.68C27.4721 27.4907 27.4721 28.4293 27.4721 29.496C27.4935 31.3093 27.5041 32.856 27.5041 34.136C27.5041 35.416 27.5041 36.3013 27.5041 36.792C27.5041 37.4747 27.4188 38.2 27.2481 38.968C27.0988 39.7147 26.8108 40.4187 26.3841 41.08C25.9575 41.7413 25.3601 42.2853 24.5921 42.712C23.8241 43.1173 22.8428 43.32 21.6481 43.32ZM35.7186 20.472H39.9106C40.0173 20.8773 40.1773 21.4213 40.3906 22.104C40.604 22.7653 40.8386 23.512 41.0946 24.344C41.372 25.176 41.6493 26.0507 41.9266 26.968C42.2253 27.8853 42.5133 28.7813 42.7906 29.656C43.0466 30.488 43.292 31.288 43.5266 32.056C43.7826 32.824 44.0066 33.5173 44.1986 34.136C44.412 34.7333 44.5826 35.224 44.7106 35.608C44.7106 35.1387 44.7106 34.6267 44.7106 34.072C44.7106 33.5173 44.7 32.9413 44.6786 32.344C44.6786 31.7253 44.6786 31.096 44.6786 30.456C44.6786 29.816 44.668 29.1653 44.6466 28.504C44.6466 27.928 44.636 27.3413 44.6146 26.744C44.6146 26.1467 44.6146 25.56 44.6146 24.984C44.6146 24.3867 44.604 23.8107 44.5826 23.256C44.5826 22.68 44.572 22.136 44.5506 21.624C44.5506 21.0907 44.54 20.5893 44.5186 20.12H48.1026C48.0813 20.7387 48.06 21.432 48.0386 22.2C48.0386 22.968 48.028 23.7893 48.0066 24.664C48.0066 25.5173 47.996 26.424 47.9746 27.384C47.9746 28.3227 47.964 29.2933 47.9426 30.296C47.9426 31.384 47.932 32.4827 47.9106 33.592C47.9106 34.68 47.9106 35.7573 47.9106 36.824C47.9106 37.8907 47.9106 38.9147 47.9106 39.896C47.9106 40.8773 47.9106 41.784 47.9106 42.616L43.8786 42.84C43.7293 42.3067 43.5373 41.688 43.3026 40.984C43.068 40.28 42.8226 39.5227 42.5666 38.712C42.3106 37.9013 42.044 37.08 41.7666 36.248C41.4893 35.416 41.212 34.6053 40.9346 33.816C40.764 33.2827 40.5933 32.7813 40.4226 32.312C40.2733 31.8213 40.124 31.3627 39.9746 30.936C39.8253 30.488 39.6866 30.0827 39.5586 29.72C39.4306 29.336 39.3133 28.9947 39.2066 28.696C39.2066 29.144 39.2066 29.624 39.2066 30.136C39.2066 30.6267 39.2066 31.128 39.2066 31.64C39.228 32.152 39.2386 32.6747 39.2386 33.208C39.2386 33.72 39.2386 34.2533 39.2386 34.808C39.2386 35.384 39.2386 35.9707 39.2386 36.568C39.26 37.144 39.2706 37.72 39.2706 38.296C39.2706 38.8507 39.2706 39.4053 39.2706 39.96C39.292 40.4933 39.3026 41.016 39.3026 41.528C39.3026 42.04 39.3133 42.5307 39.3346 43L35.8146 42.968C35.8146 42.3493 35.8146 41.688 35.8146 40.984C35.836 40.2587 35.8466 39.5013 35.8466 38.712C35.868 37.9227 35.8786 37.1013 35.8786 36.248C35.8786 35.3947 35.8786 34.5413 35.8786 33.688C35.8786 32.472 35.8786 31.2667 35.8786 30.072C35.8786 28.856 35.868 27.672 35.8466 26.52C35.8253 25.368 35.804 24.28 35.7826 23.256C35.7826 22.232 35.7613 21.304 35.7186 20.472ZM60.1704 43.288L56.1704 43C56.1917 42.3387 56.213 41.6027 56.2344 40.792C56.2557 39.9813 56.277 39.1493 56.2984 38.296C56.3197 37.4213 56.3304 36.5573 56.3304 35.704C56.3517 34.8507 56.3624 34.04 56.3624 33.272C56.3837 32.4827 56.3944 31.7893 56.3944 31.192C56.3944 30.3173 56.3944 29.3787 56.3944 28.376C56.3944 27.352 56.3837 26.3387 56.3624 25.336C56.3624 24.3333 56.3517 23.416 56.3304 22.584C56.3304 21.7307 56.3197 21.0587 56.2984 20.568L60.2984 19.96C60.277 20.6 60.245 21.368 60.2024 22.264C60.181 23.16 60.1597 24.12 60.1384 25.144C60.117 26.1467 60.0957 27.1707 60.0744 28.216C60.0744 29.24 60.0744 30.2107 60.0744 31.128C60.0744 32.0667 60.0744 33.08 60.0744 34.168C60.0957 35.256 60.1064 36.3547 60.1064 37.464C60.1277 38.552 60.1384 39.608 60.1384 40.632C60.1597 41.6347 60.1704 42.52 60.1704 43.288ZM73.7899 43.192C72.8085 43.192 71.9765 43.0427 71.2939 42.744C70.6325 42.4453 70.0885 42.0293 69.6619 41.496C69.2352 40.9413 68.8939 40.2693 68.6379 39.48C68.4459 38.8187 68.2965 38.0933 68.1899 37.304C68.1045 36.4933 68.0405 35.6187 67.9979 34.68C67.9765 33.7413 67.9659 32.7493 67.9659 31.704C67.9659 31.0213 67.9659 30.3707 67.9659 29.752C67.9872 29.1333 68.0299 28.536 68.0939 27.96C68.1579 27.3627 68.2325 26.808 68.3179 26.296C68.4032 25.7627 68.5205 25.2613 68.6699 24.792C69.0539 23.448 69.6832 22.392 70.5579 21.624C71.4325 20.8347 72.6699 20.44 74.2699 20.44C75.6352 20.44 76.7019 20.7067 77.4699 21.24C78.2379 21.752 78.7819 22.488 79.1019 23.448C79.4432 24.3867 79.6139 25.5173 79.6139 26.84C79.6139 27.416 79.5819 28.0347 79.5179 28.696C79.4752 29.336 79.4005 30.008 79.2939 30.712L75.7099 30.68C75.7952 30.0187 75.8592 29.368 75.9019 28.728C75.9659 28.0667 75.9979 27.4587 75.9979 26.904C75.9979 26.2 75.9445 25.592 75.8379 25.08C75.7312 24.5467 75.5392 24.1307 75.2619 23.832C75.0059 23.5333 74.6432 23.384 74.1739 23.384C73.4272 23.384 72.8832 23.6613 72.5419 24.216C72.2219 24.7707 71.9979 25.528 71.8699 26.488C71.8272 26.9573 71.7952 27.4907 71.7739 28.088C71.7525 28.6853 71.7419 29.3147 71.7419 29.976C71.7419 30.6373 71.7419 31.3307 71.7419 32.056C71.7419 32.8453 71.7312 33.5813 71.7099 34.264C71.7099 34.9253 71.7205 35.544 71.7419 36.12C71.7845 36.6747 71.8272 37.176 71.8699 37.624C71.9979 38.4773 72.2219 39.1173 72.5419 39.544C72.8619 39.9707 73.3739 40.184 74.0779 40.184C74.6112 40.184 75.0059 40.0773 75.2619 39.864C75.5392 39.6293 75.7312 39.288 75.8379 38.84C75.9659 38.392 76.0299 37.8373 76.0299 37.176C76.0299 36.9627 76.0192 36.7493 75.9979 36.536C75.9979 36.3013 75.9872 36.056 75.9659 35.8C75.9659 35.544 75.9445 35.288 75.9019 35.032L79.3579 34.968C79.4005 35.3307 79.4325 35.6933 79.4539 36.056C79.4752 36.3973 79.4859 36.728 79.4859 37.048C79.4859 38.4133 79.2939 39.5547 78.9099 40.472C78.5259 41.368 77.9179 42.0507 77.0859 42.52C76.2539 42.968 75.1552 43.192 73.7899 43.192ZM95.2421 43C95.2635 42.552 95.2848 41.944 95.3061 41.176C95.3275 40.408 95.3488 39.5547 95.3701 38.616C95.3915 37.6773 95.4021 36.728 95.4021 35.768C95.4235 34.7867 95.4448 33.8693 95.4661 33.016C95.4875 32.1627 95.4981 31.4267 95.4981 30.808C95.4981 30.1893 95.4875 29.496 95.4661 28.728C95.4661 27.9387 95.4555 27.1173 95.4341 26.264C95.4341 25.4107 95.4341 24.6 95.4341 23.832C95.4341 23.0427 95.4235 22.3493 95.4021 21.752C95.4021 21.1547 95.3915 20.7067 95.3701 20.408L99.4341 20.344C99.4128 20.7707 99.3808 21.3253 99.3381 22.008C99.3168 22.6907 99.2955 23.4907 99.2741 24.408C99.2528 25.304 99.2315 26.2853 99.2101 27.352C99.1888 28.4187 99.1781 29.5493 99.1781 30.744C99.1781 31.96 99.1781 33.1973 99.1781 34.456C99.1995 35.7147 99.2101 36.9093 99.2101 38.04C99.2315 39.1493 99.2528 40.1413 99.2741 41.016C99.2955 41.8693 99.3168 42.5307 99.3381 43H95.2421ZM89.1941 34.232L97.8341 34.008V37.208L89.1941 37.048V34.232ZM87.4341 42.936C87.4555 42.4667 87.4768 41.8373 87.4981 41.048C87.5195 40.2373 87.5301 39.3307 87.5301 38.328C87.5515 37.304 87.5621 36.2267 87.5621 35.096C87.5835 33.9653 87.5941 32.8347 87.5941 31.704C87.5941 30.552 87.5728 29.4107 87.5301 28.28C87.5088 27.128 87.4875 26.0507 87.4661 25.048C87.4448 24.0453 87.4235 23.1707 87.4021 22.424C87.3808 21.6773 87.3595 21.1333 87.3381 20.792L91.3701 20.664C91.3701 20.9413 91.3595 21.4107 91.3381 22.072C91.3381 22.712 91.3381 23.448 91.3381 24.28C91.3381 25.112 91.3275 25.9867 91.3061 26.904C91.3061 27.8 91.2955 28.6747 91.2741 29.528C91.2741 30.36 91.2741 31.096 91.2741 31.736C91.2741 32.2907 91.2741 32.984 91.2741 33.816C91.2955 34.6267 91.3061 35.5013 91.3061 36.44C91.3061 37.3787 91.3061 38.2853 91.3061 39.16C91.3275 40.0133 91.3381 40.7813 91.3381 41.464C91.3595 42.1253 91.3701 42.6053 91.3701 42.904L87.4341 42.936ZM116.147 43.16C115.976 42.008 115.806 40.8027 115.635 39.544C115.464 38.2853 115.283 37.016 115.091 35.736C114.899 34.456 114.686 33.1867 114.451 31.928C114.302 31.032 114.152 30.1573 114.003 29.304C113.875 28.4293 113.747 27.5973 113.619 26.808C113.491 26.0187 113.363 25.2613 113.235 24.536C113.128 23.8107 113.022 23.1387 112.915 22.52L110.803 20.632L115.795 20.44C115.923 21.272 116.062 22.136 116.211 23.032C116.36 23.9067 116.51 24.8133 116.659 25.752C116.83 26.6693 117 27.608 117.171 28.568C117.363 29.528 117.555 30.4773 117.747 31.416C118.003 32.8453 118.27 34.2533 118.547 35.64C118.824 37.0053 119.102 38.3173 119.379 39.576C119.656 40.8133 119.912 41.9547 120.147 43L116.147 43.16ZM109.619 38.744V35.608L116.659 35.736V38.52L109.619 38.744ZM110.195 42.808L106.419 42.776C106.654 41.7733 106.888 40.6747 107.123 39.48C107.379 38.2853 107.635 37.0267 107.891 35.704C108.168 34.36 108.446 32.9947 108.723 31.608C108.979 30.328 109.224 29.0587 109.459 27.8C109.715 26.5413 109.95 25.304 110.163 24.088C110.376 22.872 110.59 21.72 110.803 20.632L115.795 20.44L113.491 22.776C113.342 23.544 113.182 24.408 113.011 25.368C112.84 26.328 112.67 27.352 112.499 28.44C112.328 29.5067 112.147 30.6267 111.955 31.8C111.742 33.0373 111.528 34.296 111.315 35.576C111.123 36.8347 110.931 38.072 110.739 39.288C110.568 40.504 110.387 41.6773 110.195 42.808ZM127.063 43.32C127.084 42.6373 127.095 41.8587 127.095 40.984C127.116 40.088 127.127 39.128 127.127 38.104C127.127 37.08 127.127 36.024 127.127 34.936C127.127 33.848 127.127 32.76 127.127 31.672C127.127 30.648 127.127 29.624 127.127 28.6C127.127 27.576 127.127 26.584 127.127 25.624C127.127 24.6427 127.116 23.7253 127.095 22.872C127.095 21.9973 127.095 21.208 127.095 20.504L132.087 20.856C132.258 21.6667 132.428 22.5093 132.599 23.384C132.77 24.2587 132.951 25.1653 133.143 26.104C133.356 27.0213 133.57 27.9493 133.783 28.888C133.996 29.8267 134.199 30.776 134.391 31.736C134.583 32.5467 134.764 33.336 134.935 34.104C135.106 34.872 135.266 35.5867 135.415 36.248C135.586 36.9093 135.735 37.528 135.863 38.104C136.034 37.4 136.204 36.696 136.375 35.992C136.546 35.2667 136.716 34.5413 136.887 33.816C137.058 33.0693 137.218 32.3227 137.367 31.576C137.58 30.6373 137.783 29.7093 137.975 28.792C138.167 27.8533 138.359 26.9147 138.551 25.976C138.764 25.016 138.967 24.0453 139.159 23.064C139.351 22.0827 139.554 21.0693 139.767 20.024L144.759 19.608C144.759 20.12 144.748 20.824 144.727 21.72C144.727 22.616 144.716 23.6187 144.695 24.728C144.695 25.8373 144.695 26.9893 144.695 28.184C144.695 29.3787 144.695 30.5307 144.695 31.64C144.695 32.728 144.695 33.8053 144.695 34.872C144.716 35.9173 144.727 36.9307 144.727 37.912C144.748 38.872 144.759 39.768 144.759 40.6C144.78 41.432 144.791 42.1787 144.791 42.84L141.175 42.584C141.175 42.136 141.175 41.6987 141.175 41.272C141.196 40.824 141.207 40.376 141.207 39.928C141.207 39.4587 141.207 38.9787 141.207 38.488C141.207 37.9973 141.207 37.496 141.207 36.984C141.207 36.472 141.207 35.9387 141.207 35.384C141.207 34.808 141.207 34.2107 141.207 33.592C141.207 32.8667 141.207 32.1307 141.207 31.384C141.207 30.6373 141.207 29.9013 141.207 29.176C141.207 28.4293 141.207 27.6933 141.207 26.968C141.1 27.4373 140.983 27.9387 140.855 28.472C140.748 29.0053 140.631 29.5493 140.503 30.104C140.396 30.6587 140.279 31.224 140.151 31.8C140.044 32.376 139.916 32.9413 139.767 33.496C139.618 34.1787 139.458 34.872 139.287 35.576C139.138 36.2587 138.978 36.9627 138.807 37.688C138.636 38.392 138.455 39.128 138.263 39.896C138.071 40.664 137.879 41.4747 137.687 42.328L133.943 42.168C133.73 41.2507 133.527 40.3973 133.335 39.608C133.143 38.8187 132.962 38.072 132.791 37.368C132.62 36.664 132.45 35.9707 132.279 35.288C132.108 34.6053 131.948 33.944 131.799 33.304C131.65 32.6 131.5 31.928 131.351 31.288C131.202 30.648 131.052 30.0187 130.903 29.4C130.754 28.7813 130.604 28.184 130.455 27.608C130.455 27.736 130.455 27.928 130.455 28.184C130.455 28.4187 130.455 28.728 130.455 29.112C130.455 29.4747 130.455 29.8907 130.455 30.36C130.455 30.8293 130.455 31.3307 130.455 31.864C130.476 32.376 130.487 32.9307 130.487 33.528C130.487 34.168 130.487 34.84 130.487 35.544C130.508 36.2267 130.519 36.92 130.519 37.624C130.519 38.3067 130.519 38.9787 130.519 39.64C130.519 40.28 130.519 40.888 130.519 41.464C130.54 42.04 130.551 42.5627 130.551 43.032L127.063 43.32ZM155.132 36.28L155.004 34.168C156.113 34.168 157.052 34.0827 157.82 33.912C158.609 33.7413 159.228 33.4427 159.676 33.016C160.145 32.568 160.487 31.9493 160.7 31.16C160.913 30.3707 161.02 29.3467 161.02 28.088C161.02 26.7867 160.903 25.7627 160.668 25.016C160.433 24.248 160.039 23.6933 159.484 23.352C158.951 23.0107 158.236 22.84 157.34 22.84C156.892 22.84 156.401 22.872 155.868 22.936C155.356 22.9787 154.78 23.0533 154.14 23.16L152.668 20.184C153.415 20.12 154.151 20.0773 154.876 20.056C155.601 20.0133 156.263 19.992 156.86 19.992C158.716 19.992 160.22 20.216 161.372 20.664C162.524 21.112 163.367 21.9227 163.9 23.096C164.433 24.248 164.7 25.88 164.7 27.992C164.7 29.5067 164.465 30.7973 163.996 31.864C163.527 32.9093 162.855 33.7627 161.98 34.424C161.127 35.064 160.113 35.5333 158.94 35.832C157.788 36.1307 156.519 36.28 155.132 36.28ZM156.924 43.32C156.54 43.32 156.103 43.3093 155.612 43.288C155.143 43.288 154.663 43.2667 154.172 43.224C153.681 43.2027 153.191 43.1813 152.7 43.16L154.396 40.344C155.057 40.408 155.697 40.472 156.316 40.536C156.935 40.5787 157.511 40.6 158.044 40.6C158.62 40.6 159.143 40.5573 159.612 40.472C160.103 40.3867 160.497 40.216 160.796 39.96C161.095 39.6827 161.244 39.2667 161.244 38.712C161.244 38.2427 161.116 37.88 160.86 37.624C160.604 37.3467 160.22 37.1547 159.708 37.048C159.217 36.9413 158.577 36.888 157.788 36.888C157.575 36.888 157.308 36.8987 156.988 36.92C156.689 36.92 156.369 36.92 156.028 36.92C155.708 36.92 155.409 36.9307 155.132 36.952L155.004 34.168C157.5 34.1467 159.463 34.328 160.892 34.712C162.343 35.096 163.377 35.64 163.996 36.344C164.615 37.048 164.924 37.8907 164.924 38.872C164.924 40.0453 164.604 40.9627 163.964 41.624C163.324 42.264 162.407 42.712 161.212 42.968C160.017 43.2027 158.588 43.32 156.924 43.32ZM152.7 43.16C152.7 43.16 152.7 42.84 152.7 42.2C152.721 41.5387 152.743 40.664 152.764 39.576C152.785 38.488 152.796 37.2827 152.796 35.96C152.817 34.616 152.828 33.272 152.828 31.928C152.828 30.5627 152.817 29.1973 152.796 27.832C152.796 26.4453 152.775 25.176 152.732 24.024C152.711 22.8507 152.689 21.9227 152.668 21.24C152.668 20.536 152.668 20.184 152.668 20.184L156.54 20.472C156.54 20.472 156.529 20.7493 156.508 21.304C156.508 21.8373 156.497 22.552 156.476 23.448C156.476 24.3227 156.465 25.2827 156.444 26.328C156.423 27.352 156.401 28.3547 156.38 29.336C156.38 30.3173 156.38 31.1813 156.38 31.928C156.38 32.6747 156.38 33.528 156.38 34.488C156.401 35.448 156.412 36.4187 156.412 37.4C156.433 38.3813 156.444 39.288 156.444 40.12C156.465 40.952 156.476 41.624 156.476 42.136C156.497 42.648 156.508 42.904 156.508 42.904L152.7 43.16ZM170.724 43.224C170.959 42.2213 171.193 41.0907 171.428 39.832C171.684 38.552 171.94 37.208 172.196 35.8C172.473 34.392 172.751 32.9947 173.028 31.608C173.284 30.328 173.529 29.08 173.764 27.864C174.02 26.6267 174.255 25.4213 174.468 24.248C174.681 23.0533 174.895 21.9227 175.108 20.856L180.228 20.44C180.399 21.5493 180.591 22.712 180.804 23.928C181.017 25.1227 181.241 26.3493 181.476 27.608C181.711 28.8667 181.935 30.136 182.148 31.416C182.404 32.8453 182.66 34.232 182.916 35.576C183.193 36.92 183.46 38.1893 183.716 39.384C183.972 40.5787 184.217 41.7093 184.452 42.776L180.484 42.84C180.313 41.6667 180.143 40.472 179.972 39.256C179.801 38.04 179.62 36.824 179.428 35.608C179.257 34.3707 179.076 33.144 178.884 31.928C178.756 31.2667 178.639 30.616 178.532 29.976C178.425 29.3147 178.319 28.6747 178.212 28.056C178.105 27.416 177.999 26.7973 177.892 26.2C177.785 25.6027 177.679 25.0267 177.572 24.472C177.444 25.176 177.305 25.9333 177.156 26.744C177.007 27.5547 176.857 28.3867 176.708 29.24C176.559 30.072 176.409 30.9253 176.26 31.8C176.047 33.0373 175.844 34.3067 175.652 35.608C175.46 36.9093 175.268 38.2 175.076 39.48C174.905 40.7387 174.724 41.9333 174.532 43.064L170.724 43.224ZM173.988 38.648V35.864L181.028 35.608V38.744L173.988 38.648Z" fill="#2F4858"/>
</g>
<path d="M12 9.45264C17.8441 6.11314 71.2763 3.33025 56.2485 13.9053C113.298 17.8014 220.051 17.0222 200.682 5" stroke="#2F4858"/>
<path d="M42.0743 55.676V47.336C42.0743 47.232 42.1183 47.152 42.2063 47.096C42.2943 47.032 42.3983 47 42.5183 47C42.8143 47 42.9623 47.112 42.9623 47.336V48.644C43.7223 47.484 44.8463 46.904 46.3343 46.904C47.0143 46.904 47.5903 47.132 48.0623 47.588C48.5423 48.036 48.7823 48.564 48.7823 49.172C48.7823 49.884 48.5863 50.54 48.1943 51.14C47.8023 51.732 47.2903 52.192 46.6583 52.52C46.0343 52.848 45.3783 53.012 44.6903 53.012C44.0263 53.012 43.4503 52.792 42.9623 52.352V55.676C42.9623 55.892 42.8103 56 42.5063 56C42.3863 56 42.2823 55.972 42.1943 55.916C42.1143 55.86 42.0743 55.78 42.0743 55.676ZM42.9503 50.636C42.9503 51.124 43.1423 51.492 43.5263 51.74C43.9183 51.988 44.3063 52.112 44.6903 52.112C45.1543 52.112 45.6263 52 46.1063 51.776C46.5863 51.552 46.9943 51.22 47.3303 50.78C47.6743 50.332 47.8463 49.844 47.8463 49.316C47.8463 48.772 47.6743 48.38 47.3303 48.14C46.9943 47.9 46.5863 47.78 46.1063 47.78C45.6583 47.78 45.1823 47.932 44.6783 48.236C44.1823 48.532 43.7703 48.908 43.4423 49.364C43.1143 49.812 42.9503 50.236 42.9503 50.636ZM49.937 50.024C49.937 49.336 50.117 48.744 50.477 48.248C50.845 47.744 51.285 47.38 51.797 47.156C52.317 46.932 52.861 46.82 53.429 46.82C54.229 46.82 54.965 47.124 55.637 47.732C56.317 48.332 56.657 49.092 56.657 50.012C56.657 50.884 56.357 51.632 55.757 52.256C55.157 52.872 54.373 53.18 53.405 53.18C52.453 53.18 51.637 52.872 50.957 52.256C50.277 51.632 49.937 50.888 49.937 50.024ZM50.825 50.036C50.825 50.604 51.085 51.124 51.605 51.596C52.125 52.06 52.729 52.292 53.417 52.292C54.065 52.292 54.617 52.056 55.073 51.584C55.537 51.112 55.769 50.588 55.769 50.012C55.769 49.452 55.549 48.928 55.109 48.44C54.669 47.952 54.101 47.708 53.405 47.708C52.589 47.708 51.953 47.956 51.497 48.452C51.049 48.948 50.825 49.476 50.825 50.036ZM58.0699 52.688V47.324C58.0699 47.22 58.1099 47.14 58.1899 47.084C58.2779 47.028 58.3819 47 58.5019 47C58.8059 47 58.9579 47.108 58.9579 47.324V48.272C59.3579 47.84 59.8419 47.5 60.4099 47.252C60.9779 46.996 61.5539 46.868 62.1379 46.868C62.8899 46.868 63.5179 47.104 64.0219 47.576C64.5339 48.04 64.7899 48.648 64.7899 49.4C64.7899 49.472 64.7859 49.84 64.7779 50.504C64.7779 51.16 64.7779 51.88 64.7779 52.664C64.7779 52.768 64.7339 52.852 64.6459 52.916C64.5579 52.972 64.4539 53 64.3339 53C64.0379 53 63.8899 52.888 63.8899 52.664V49.508C63.8899 48.94 63.6859 48.504 63.2779 48.2C62.8779 47.896 62.4619 47.744 62.0299 47.744C61.4459 47.744 60.8459 47.94 60.2299 48.332C59.6219 48.716 59.1979 49.204 58.9579 49.796V52.688C58.9579 52.904 58.8059 53.012 58.5019 53.012C58.3819 53.012 58.2779 52.984 58.1899 52.928C58.1099 52.872 58.0699 52.792 58.0699 52.688ZM65.9413 47.444C65.9413 47.324 65.9693 47.22 66.0253 47.132C66.0893 47.044 66.1733 47 66.2773 47H66.6853V45.524C66.6853 45.42 66.7253 45.34 66.8053 45.284C66.8933 45.228 66.9973 45.2 67.1173 45.2C67.4213 45.2 67.5733 45.308 67.5733 45.524V47H69.4933C69.5973 47 69.6773 47.044 69.7333 47.132C69.7893 47.212 69.8173 47.312 69.8173 47.432C69.8173 47.736 69.7093 47.888 69.4933 47.888H67.5733V50.756C67.5733 51.652 67.9133 52.1 68.5933 52.1C68.8813 52.1 69.1293 52.02 69.3373 51.86C69.5533 51.7 69.6613 51.42 69.6613 51.02C69.6613 50.908 69.7053 50.816 69.7933 50.744C69.8893 50.672 70.0013 50.636 70.1293 50.636C70.2493 50.636 70.3493 50.672 70.4293 50.744C70.5093 50.808 70.5493 50.904 70.5493 51.032C70.5413 51.664 70.3493 52.148 69.9733 52.484C69.6053 52.82 69.1453 52.988 68.5933 52.988C67.3213 52.988 66.6853 52.136 66.6853 50.432V47.888H66.2773C66.0533 47.888 65.9413 47.74 65.9413 47.444ZM71.4461 49.832C71.4461 49.32 71.5581 48.864 71.7821 48.464C72.0061 48.064 72.3021 47.748 72.6701 47.516C73.0381 47.284 73.4341 47.112 73.8581 47C74.2821 46.88 74.7141 46.82 75.1541 46.82C75.9381 46.82 76.5461 46.992 76.9781 47.336C77.4101 47.672 77.6261 48.088 77.6261 48.584C77.6261 49.12 77.3741 49.576 76.8701 49.952C76.3661 50.328 75.6501 50.516 74.7221 50.516C73.8901 50.516 73.0981 50.396 72.3461 50.156C72.4341 50.748 72.7101 51.244 73.1741 51.644C73.6381 52.044 74.2101 52.244 74.8901 52.244C75.2501 52.244 75.6221 52.188 76.0061 52.076C76.3981 51.964 76.7061 51.804 76.9301 51.596C76.9621 51.532 77.0261 51.5 77.1221 51.5C77.2341 51.5 77.3541 51.552 77.4821 51.656C77.6101 51.752 77.6741 51.852 77.6741 51.956C77.4741 52.364 77.0821 52.664 76.4981 52.856C75.9221 53.04 75.3621 53.132 74.8181 53.132C73.8341 53.132 73.0261 52.808 72.3941 52.16C71.7621 51.512 71.4461 50.736 71.4461 49.832ZM72.3941 49.232C72.9941 49.496 73.7381 49.628 74.6261 49.628C75.3221 49.628 75.8501 49.52 76.2101 49.304C76.5701 49.08 76.7501 48.832 76.7501 48.56C76.7501 48.32 76.5981 48.12 76.2941 47.96C75.9981 47.792 75.5541 47.708 74.9621 47.708C74.3221 47.708 73.7861 47.852 73.3541 48.14C72.9301 48.42 72.6101 48.784 72.3941 49.232ZM81.969 50.816C81.969 49.744 82.389 48.82 83.229 48.044C84.069 47.268 85.021 46.88 86.085 46.88C86.813 46.88 87.433 47.156 87.945 47.708C88.457 48.26 88.713 48.888 88.713 49.592L88.701 52.736C88.701 52.84 88.649 52.924 88.545 52.988C88.449 53.044 88.341 53.072 88.221 53.072C87.957 53.072 87.825 52.96 87.825 52.736V50.708C87.177 51.548 86.557 52.156 85.965 52.532C85.381 52.908 84.777 53.096 84.153 53.096C83.577 53.096 83.069 52.864 82.629 52.4C82.189 51.928 81.969 51.4 81.969 50.816ZM82.833 50.84C82.833 51.296 82.993 51.644 83.313 51.884C83.633 52.116 83.973 52.232 84.333 52.232C84.749 52.232 85.225 52.028 85.761 51.62C86.297 51.204 86.741 50.744 87.093 50.24C87.453 49.728 87.633 49.328 87.633 49.04C87.633 48.8 87.561 48.588 87.417 48.404C87.281 48.212 87.109 48.072 86.901 47.984C86.701 47.896 86.517 47.832 86.349 47.792C86.181 47.744 86.041 47.72 85.929 47.72C85.145 47.72 84.433 48.036 83.793 48.668C83.153 49.292 82.833 50.016 82.833 50.84ZM93.1717 50.024C93.1717 49.336 93.3557 48.744 93.7237 48.248C94.0917 47.744 94.5357 47.38 95.0557 47.156C95.5757 46.932 96.1197 46.82 96.6877 46.82C97.4077 46.82 98.0757 47.068 98.6917 47.564C98.7557 47.62 98.7877 47.692 98.7877 47.78C98.7877 47.908 98.7357 48.028 98.6317 48.14C98.5277 48.244 98.4197 48.296 98.3077 48.296C98.2277 48.296 98.1597 48.268 98.1037 48.212C97.7197 47.876 97.2397 47.708 96.6637 47.708C95.8477 47.708 95.2077 47.956 94.7437 48.452C94.2877 48.948 94.0597 49.476 94.0597 50.036C94.0597 50.604 94.3237 51.124 94.8517 51.596C95.3797 52.06 95.9877 52.292 96.6757 52.292C97.3797 52.292 97.9517 52.04 98.3917 51.536C98.4797 51.448 98.5557 51.404 98.6197 51.404C98.7397 51.404 98.8557 51.464 98.9677 51.584C99.0797 51.704 99.1357 51.82 99.1357 51.932C99.1357 52.004 99.1077 52.068 99.0517 52.124C98.4357 52.828 97.6637 53.18 96.7357 53.18C95.7517 53.18 94.9117 52.872 94.2157 52.256C93.5197 51.632 93.1717 50.888 93.1717 50.024ZM100.332 52.688V44.312C100.332 44.208 100.372 44.128 100.452 44.072C100.54 44.016 100.644 43.988 100.764 43.988C101.068 43.988 101.22 44.096 101.22 44.312V48.296C101.612 47.88 102.092 47.552 102.66 47.312C103.228 47.072 103.808 46.952 104.4 46.952C105.16 46.952 105.792 47.176 106.296 47.624C106.8 48.064 107.052 48.656 107.052 49.4C107.052 49.472 107.048 49.84 107.04 50.504C107.04 51.16 107.04 51.88 107.04 52.664C107.04 52.768 106.996 52.852 106.908 52.916C106.82 52.972 106.716 53 106.596 53C106.3 53 106.152 52.888 106.152 52.664V49.508C106.152 49.116 106.04 48.788 105.816 48.524C105.6 48.252 105.36 48.068 105.096 47.972C104.832 47.876 104.564 47.828 104.292 47.828C103.7 47.828 103.096 48.012 102.48 48.38C101.872 48.748 101.452 49.22 101.22 49.796V52.688C101.22 52.904 101.068 53.012 100.764 53.012C100.644 53.012 100.54 52.984 100.452 52.928C100.372 52.872 100.332 52.792 100.332 52.688ZM108.382 50.816C108.382 49.744 108.802 48.82 109.642 48.044C110.482 47.268 111.434 46.88 112.498 46.88C113.226 46.88 113.846 47.156 114.358 47.708C114.87 48.26 115.126 48.888 115.126 49.592L115.114 52.736C115.114 52.84 115.062 52.924 114.958 52.988C114.862 53.044 114.754 53.072 114.634 53.072C114.37 53.072 114.238 52.96 114.238 52.736V50.708C113.59 51.548 112.97 52.156 112.378 52.532C111.794 52.908 111.19 53.096 110.566 53.096C109.99 53.096 109.482 52.864 109.042 52.4C108.602 51.928 108.382 51.4 108.382 50.816ZM109.246 50.84C109.246 51.296 109.406 51.644 109.726 51.884C110.046 52.116 110.386 52.232 110.746 52.232C111.162 52.232 111.638 52.028 112.174 51.62C112.71 51.204 113.154 50.744 113.506 50.24C113.866 49.728 114.046 49.328 114.046 49.04C114.046 48.8 113.974 48.588 113.83 48.404C113.694 48.212 113.522 48.072 113.314 47.984C113.114 47.896 112.93 47.832 112.762 47.792C112.594 47.744 112.454 47.72 112.342 47.72C111.558 47.72 110.846 48.036 110.206 48.668C109.566 49.292 109.246 50.016 109.246 50.84ZM116.702 52.664V47.348C116.702 47.132 116.854 47.024 117.158 47.024C117.278 47.024 117.378 47.052 117.458 47.108C117.546 47.164 117.59 47.244 117.59 47.348V47.984C117.846 47.68 118.158 47.42 118.526 47.204C118.894 46.988 119.258 46.88 119.618 46.88C120.602 46.88 121.302 47.236 121.718 47.948C121.966 47.604 122.282 47.34 122.666 47.156C123.058 46.972 123.454 46.88 123.854 46.88C124.598 46.88 125.186 47.092 125.618 47.516C126.05 47.94 126.266 48.528 126.266 49.28C126.266 49.352 126.262 49.748 126.254 50.468C126.254 51.18 126.254 51.928 126.254 52.712C126.254 52.816 126.21 52.9 126.122 52.964C126.034 53.02 125.934 53.048 125.822 53.048C125.526 53.048 125.378 52.936 125.378 52.712V49.388C125.378 48.308 124.886 47.768 123.902 47.768C123.758 47.768 123.61 47.784 123.458 47.816C123.314 47.84 123.154 47.892 122.978 47.972C122.81 48.052 122.658 48.152 122.522 48.272C122.386 48.384 122.274 48.54 122.186 48.74C122.098 48.94 122.054 49.164 122.054 49.412C122.054 49.724 122.05 50.12 122.042 50.6C122.042 51.08 122.042 51.784 122.042 52.712C122.042 52.816 121.994 52.9 121.898 52.964C121.81 53.02 121.706 53.048 121.586 53.048C121.306 53.048 121.166 52.936 121.166 52.712V49.388C121.166 48.804 121.026 48.388 120.746 48.14C120.466 47.892 120.106 47.768 119.666 47.768C119.242 47.768 118.83 47.928 118.43 48.248C118.038 48.568 117.758 48.94 117.59 49.364V52.664C117.59 52.768 117.546 52.852 117.458 52.916C117.37 52.972 117.266 53 117.146 53C116.85 53 116.702 52.888 116.702 52.664ZM127.876 52.664V44.312C127.876 44.104 128.028 44 128.332 44C128.62 44 128.764 44.104 128.764 44.312V47.588C129.26 47.116 129.84 46.88 130.504 46.88C131.568 46.88 132.52 47.268 133.36 48.044C134.2 48.82 134.62 49.744 134.62 50.816C134.62 51.4 134.4 51.928 133.96 52.4C133.52 52.864 133.012 53.096 132.436 53.096C131.812 53.096 131.204 52.908 130.612 52.532C130.028 52.156 129.412 51.548 128.764 50.708V52.664C128.764 52.768 128.72 52.852 128.632 52.916C128.544 52.972 128.44 53 128.32 53C128.024 53 127.876 52.888 127.876 52.664ZM128.956 49.04C128.956 49.328 129.132 49.728 129.484 50.24C129.844 50.744 130.292 51.204 130.828 51.62C131.364 52.028 131.84 52.232 132.256 52.232C132.616 52.232 132.956 52.116 133.276 51.884C133.596 51.644 133.756 51.296 133.756 50.84C133.756 50.016 133.436 49.292 132.796 48.668C132.156 48.036 131.444 47.72 130.66 47.72C130.548 47.72 130.408 47.744 130.24 47.792C130.072 47.832 129.884 47.896 129.676 47.984C129.476 48.072 129.304 48.212 129.16 48.404C129.024 48.588 128.956 48.8 128.956 49.04ZM135.774 49.832C135.774 49.32 135.886 48.864 136.11 48.464C136.334 48.064 136.63 47.748 136.998 47.516C137.366 47.284 137.762 47.112 138.186 47C138.61 46.88 139.042 46.82 139.482 46.82C140.266 46.82 140.874 46.992 141.306 47.336C141.738 47.672 141.954 48.088 141.954 48.584C141.954 49.12 141.702 49.576 141.198 49.952C140.694 50.328 139.978 50.516 139.05 50.516C138.218 50.516 137.426 50.396 136.674 50.156C136.762 50.748 137.038 51.244 137.502 51.644C137.966 52.044 138.538 52.244 139.218 52.244C139.578 52.244 139.95 52.188 140.334 52.076C140.726 51.964 141.034 51.804 141.258 51.596C141.29 51.532 141.354 51.5 141.45 51.5C141.562 51.5 141.682 51.552 141.81 51.656C141.938 51.752 142.002 51.852 142.002 51.956C141.802 52.364 141.41 52.664 140.826 52.856C140.25 53.04 139.69 53.132 139.146 53.132C138.162 53.132 137.354 52.808 136.722 52.16C136.09 51.512 135.774 50.736 135.774 49.832ZM136.722 49.232C137.322 49.496 138.066 49.628 138.954 49.628C139.65 49.628 140.178 49.52 140.538 49.304C140.898 49.08 141.078 48.832 141.078 48.56C141.078 48.32 140.926 48.12 140.622 47.96C140.326 47.792 139.882 47.708 139.29 47.708C138.65 47.708 138.114 47.852 137.682 48.14C137.258 48.42 136.938 48.784 136.722 49.232ZM143.162 50.816C143.162 49.744 143.582 48.82 144.422 48.044C145.262 47.268 146.214 46.88 147.278 46.88C148.006 46.88 148.626 47.156 149.138 47.708C149.65 48.26 149.906 48.888 149.906 49.592L149.894 52.736C149.894 52.84 149.842 52.924 149.738 52.988C149.642 53.044 149.534 53.072 149.414 53.072C149.15 53.072 149.018 52.96 149.018 52.736V50.708C148.37 51.548 147.75 52.156 147.158 52.532C146.574 52.908 145.97 53.096 145.346 53.096C144.77 53.096 144.262 52.864 143.822 52.4C143.382 51.928 143.162 51.4 143.162 50.816ZM144.026 50.84C144.026 51.296 144.186 51.644 144.506 51.884C144.826 52.116 145.166 52.232 145.526 52.232C145.942 52.232 146.418 52.028 146.954 51.62C147.49 51.204 147.934 50.744 148.286 50.24C148.646 49.728 148.826 49.328 148.826 49.04C148.826 48.8 148.754 48.588 148.61 48.404C148.474 48.212 148.302 48.072 148.094 47.984C147.894 47.896 147.71 47.832 147.542 47.792C147.374 47.744 147.234 47.72 147.122 47.72C146.338 47.72 145.626 48.036 144.986 48.668C144.346 49.292 144.026 50.016 144.026 50.84ZM151.483 52.664V47.348C151.483 47.132 151.635 47.024 151.939 47.024C152.059 47.024 152.159 47.052 152.239 47.108C152.327 47.164 152.371 47.244 152.371 47.348V48.848C152.675 48.192 153.011 47.696 153.379 47.36C153.755 47.024 154.251 46.856 154.867 46.856C155.299 46.856 155.735 46.912 156.175 47.024C156.407 47.136 156.523 47.288 156.523 47.48C156.523 47.616 156.495 47.712 156.439 47.768C156.383 47.824 156.291 47.86 156.163 47.876C155.755 47.78 155.423 47.732 155.167 47.732C154.575 47.732 154.035 48.024 153.547 48.608C153.059 49.192 152.667 49.952 152.371 50.888V52.664C152.371 52.768 152.327 52.852 152.239 52.916C152.151 52.972 152.047 53 151.927 53C151.631 53 151.483 52.888 151.483 52.664Z" fill="#2F4858" fill-opacity="0.9"/>
<defs>
<filter id="filter0_d_65_115" x="11.7601" y="19.6079" width="176.692" height="31.7122" filterUnits="userSpaceOnUse" color-interpolation-filters="sRGB">
<feFlood flood-opacity="0" result="BackgroundImageFix"/>
<feColorMatrix in="SourceAlpha" type="matrix" values="0 0 0 0 0 0 0 0 0 0 0 0 0 0 0 0 0 0 127 0" result="hardAlpha"/>
<feOffset dy="4"/>
<feGaussianBlur stdDeviation="2"/>
<feComposite in2="hardAlpha" operator="out"/>
<feColorMatrix type="matrix" values="0 0 0 0 0 0 0 0 0 0 0 0 0 0 0 0 0 0 0.25 0"/>
<feBlend mode="normal" in2="BackgroundImageFix" result="effect1_dropShadow_65_115"/>
<feBlend mode="normal" in="SourceGraphic" in2="effect1_dropShadow_65_115" result="shape"/>
</filter>
</defs>
</svg>
