<svg width="215" height="63" viewBox="0 0 215 63" fill="none" xmlns="http://www.w3.org/2000/svg">
<g filter="url(#filter0_d_772_1332)">
<path d="M26.5496 43.32C25.4616 43.32 24.5443 43.16 23.7976 42.84C23.0723 42.4987 22.4856 42.04 22.0376 41.464C21.5896 40.8667 21.2589 40.184 21.0456 39.416C20.8323 38.6267 20.7256 37.7733 20.7256 36.856C20.7256 36.1093 20.7256 35.288 20.7256 34.392C20.7469 33.4747 20.7576 32.5573 20.7576 31.64C20.7576 30.7227 20.7576 29.9013 20.7576 29.176C20.7576 28.216 20.7576 27.2773 20.7576 26.36C20.7576 25.4427 20.7469 24.5253 20.7256 23.608C20.7256 22.6693 20.7043 21.7093 20.6616 20.728L24.5016 20.76C24.4803 21.464 24.4589 22.2107 24.4376 23C24.4163 23.768 24.3949 24.536 24.3736 25.304C24.3736 26.072 24.3629 26.808 24.3416 27.512C24.3416 28.1947 24.3416 28.8133 24.3416 29.368C24.3416 29.9867 24.3309 30.5947 24.3096 31.192C24.3096 31.7893 24.3096 32.3547 24.3096 32.888C24.3096 33.4213 24.3096 33.912 24.3096 34.36C24.3096 34.808 24.3096 35.192 24.3096 35.512C24.3096 36.536 24.3736 37.4 24.5016 38.104C24.6296 38.7867 24.8643 39.3093 25.2056 39.672C25.5469 40.0133 26.0269 40.184 26.6456 40.184C27.1149 40.184 27.4883 40.0667 27.7656 39.832C28.0643 39.576 28.2883 39.2453 28.4376 38.84C28.5869 38.4347 28.6829 37.976 28.7256 37.464C28.7683 36.952 28.7896 36.44 28.7896 35.928C28.7896 35.7147 28.7896 35.352 28.7896 34.84C28.8109 34.3067 28.8216 33.6027 28.8216 32.728C28.8216 31.832 28.8216 30.7333 28.8216 29.432C28.8216 28.0667 28.8003 26.8293 28.7576 25.72C28.7363 24.5893 28.7149 23.5867 28.6936 22.712C28.6723 21.816 28.6509 21.0373 28.6296 20.376L32.4696 20.408C32.4696 21.112 32.4589 21.7947 32.4376 22.456C32.4376 23.096 32.4269 23.7573 32.4056 24.44C32.4056 25.1227 32.3949 25.8693 32.3736 26.68C32.3736 27.4907 32.3736 28.4293 32.3736 29.496C32.3949 31.3093 32.4056 32.856 32.4056 34.136C32.4056 35.416 32.4056 36.3013 32.4056 36.792C32.4056 37.4747 32.3203 38.2 32.1496 38.968C32.0003 39.7147 31.7123 40.4187 31.2856 41.08C30.8589 41.7413 30.2616 42.2853 29.4936 42.712C28.7256 43.1173 27.7443 43.32 26.5496 43.32ZM40.6201 20.472H44.8121C44.9188 20.8773 45.0788 21.4213 45.2921 22.104C45.5054 22.7653 45.7401 23.512 45.9961 24.344C46.2734 25.176 46.5508 26.0507 46.8281 26.968C47.1268 27.8853 47.4148 28.7813 47.6921 29.656C47.9481 30.488 48.1934 31.288 48.4281 32.056C48.6841 32.824 48.9081 33.5173 49.1001 34.136C49.3134 34.7333 49.4841 35.224 49.6121 35.608C49.6121 35.1387 49.6121 34.6267 49.6121 34.072C49.6121 33.5173 49.6014 32.9413 49.5801 32.344C49.5801 31.7253 49.5801 31.096 49.5801 30.456C49.5801 29.816 49.5694 29.1653 49.5481 28.504C49.5481 27.928 49.5374 27.3413 49.5161 26.744C49.5161 26.1467 49.5161 25.56 49.5161 24.984C49.5161 24.3867 49.5054 23.8107 49.4841 23.256C49.4841 22.68 49.4734 22.136 49.4521 21.624C49.4521 21.0907 49.4414 20.5893 49.4201 20.12H53.0041C52.9828 20.7387 52.9614 21.432 52.9401 22.2C52.9401 22.968 52.9294 23.7893 52.9081 24.664C52.9081 25.5173 52.8974 26.424 52.8761 27.384C52.8761 28.3227 52.8654 29.2933 52.8441 30.296C52.8441 31.384 52.8334 32.4827 52.8121 33.592C52.8121 34.68 52.8121 35.7573 52.8121 36.824C52.8121 37.8907 52.8121 38.9147 52.8121 39.896C52.8121 40.8773 52.8121 41.784 52.8121 42.616L48.7801 42.84C48.6308 42.3067 48.4388 41.688 48.2041 40.984C47.9694 40.28 47.7241 39.5227 47.4681 38.712C47.2121 37.9013 46.9454 37.08 46.6681 36.248C46.3908 35.416 46.1134 34.6053 45.8361 33.816C45.6654 33.2827 45.4948 32.7813 45.3241 32.312C45.1748 31.8213 45.0254 31.3627 44.8761 30.936C44.7268 30.488 44.5881 30.0827 44.4601 29.72C44.3321 29.336 44.2148 28.9947 44.1081 28.696C44.1081 29.144 44.1081 29.624 44.1081 30.136C44.1081 30.6267 44.1081 31.128 44.1081 31.64C44.1294 32.152 44.1401 32.6747 44.1401 33.208C44.1401 33.72 44.1401 34.2533 44.1401 34.808C44.1401 35.384 44.1401 35.9707 44.1401 36.568C44.1614 37.144 44.1721 37.72 44.1721 38.296C44.1721 38.8507 44.1721 39.4053 44.1721 39.96C44.1934 40.4933 44.2041 41.016 44.2041 41.528C44.2041 42.04 44.2148 42.5307 44.2361 43L40.7161 42.968C40.7161 42.3493 40.7161 41.688 40.7161 40.984C40.7374 40.2587 40.7481 39.5013 40.7481 38.712C40.7694 37.9227 40.7801 37.1013 40.7801 36.248C40.7801 35.3947 40.7801 34.5413 40.7801 33.688C40.7801 32.472 40.7801 31.2667 40.7801 30.072C40.7801 28.856 40.7694 27.672 40.7481 26.52C40.7268 25.368 40.7054 24.28 40.6841 23.256C40.6841 22.232 40.6628 21.304 40.6201 20.472ZM65.0719 43.288L61.0719 43C61.0932 42.3387 61.1145 41.6027 61.1359 40.792C61.1572 39.9813 61.1785 39.1493 61.1999 38.296C61.2212 37.4213 61.2319 36.5573 61.2319 35.704C61.2532 34.8507 61.2639 34.04 61.2639 33.272C61.2852 32.4827 61.2959 31.7893 61.2959 31.192C61.2959 30.3173 61.2959 29.3787 61.2959 28.376C61.2959 27.352 61.2852 26.3387 61.2639 25.336C61.2639 24.3333 61.2532 23.416 61.2319 22.584C61.2319 21.7307 61.2212 21.0587 61.1999 20.568L65.1999 19.96C65.1785 20.6 65.1465 21.368 65.1039 22.264C65.0825 23.16 65.0612 24.12 65.0399 25.144C65.0185 26.1467 64.9972 27.1707 64.9759 28.216C64.9759 29.24 64.9759 30.2107 64.9759 31.128C64.9759 32.0667 64.9759 33.08 64.9759 34.168C64.9972 35.256 65.0079 36.3547 65.0079 37.464C65.0292 38.552 65.0399 39.608 65.0399 40.632C65.0612 41.6347 65.0719 42.52 65.0719 43.288ZM78.6914 43.192C77.71 43.192 76.878 43.0427 76.1954 42.744C75.534 42.4453 74.99 42.0293 74.5634 41.496C74.1367 40.9413 73.7954 40.2693 73.5394 39.48C73.3474 38.8187 73.198 38.0933 73.0914 37.304C73.006 36.4933 72.942 35.6187 72.8994 34.68C72.878 33.7413 72.8674 32.7493 72.8674 31.704C72.8674 31.0213 72.8674 30.3707 72.8674 29.752C72.8887 29.1333 72.9314 28.536 72.9954 27.96C73.0594 27.3627 73.134 26.808 73.2194 26.296C73.3047 25.7627 73.422 25.2613 73.5714 24.792C73.9554 23.448 74.5847 22.392 75.4594 21.624C76.334 20.8347 77.5714 20.44 79.1714 20.44C80.5367 20.44 81.6034 20.7067 82.3714 21.24C83.1394 21.752 83.6834 22.488 84.0034 23.448C84.3447 24.3867 84.5154 25.5173 84.5154 26.84C84.5154 27.416 84.4834 28.0347 84.4194 28.696C84.3767 29.336 84.302 30.008 84.1954 30.712L80.6114 30.68C80.6967 30.0187 80.7607 29.368 80.8034 28.728C80.8674 28.0667 80.8994 27.4587 80.8994 26.904C80.8994 26.2 80.846 25.592 80.7394 25.08C80.6327 24.5467 80.4407 24.1307 80.1634 23.832C79.9074 23.5333 79.5447 23.384 79.0754 23.384C78.3287 23.384 77.7847 23.6613 77.4434 24.216C77.1234 24.7707 76.8994 25.528 76.7714 26.488C76.7287 26.9573 76.6967 27.4907 76.6754 28.088C76.654 28.6853 76.6434 29.3147 76.6434 29.976C76.6434 30.6373 76.6434 31.3307 76.6434 32.056C76.6434 32.8453 76.6327 33.5813 76.6114 34.264C76.6114 34.9253 76.622 35.544 76.6434 36.12C76.686 36.6747 76.7287 37.176 76.7714 37.624C76.8994 38.4773 77.1234 39.1173 77.4434 39.544C77.7634 39.9707 78.2754 40.184 78.9794 40.184C79.5127 40.184 79.9074 40.0773 80.1634 39.864C80.4407 39.6293 80.6327 39.288 80.7394 38.84C80.8674 38.392 80.9314 37.8373 80.9314 37.176C80.9314 36.9627 80.9207 36.7493 80.8994 36.536C80.8994 36.3013 80.8887 36.056 80.8674 35.8C80.8674 35.544 80.846 35.288 80.8034 35.032L84.2594 34.968C84.302 35.3307 84.334 35.6933 84.3554 36.056C84.3767 36.3973 84.3874 36.728 84.3874 37.048C84.3874 38.4133 84.1954 39.5547 83.8114 40.472C83.4274 41.368 82.8194 42.0507 81.9874 42.52C81.1554 42.968 80.0567 43.192 78.6914 43.192ZM100.144 43C100.165 42.552 100.186 41.944 100.208 41.176C100.229 40.408 100.25 39.5547 100.272 38.616C100.293 37.6773 100.304 36.728 100.304 35.768C100.325 34.7867 100.346 33.8693 100.368 33.016C100.389 32.1627 100.4 31.4267 100.4 30.808C100.4 30.1893 100.389 29.496 100.368 28.728C100.368 27.9387 100.357 27.1173 100.336 26.264C100.336 25.4107 100.336 24.6 100.336 23.832C100.336 23.0427 100.325 22.3493 100.304 21.752C100.304 21.1547 100.293 20.7067 100.272 20.408L104.336 20.344C104.314 20.7707 104.282 21.3253 104.24 22.008C104.218 22.6907 104.197 23.4907 104.176 24.408C104.154 25.304 104.133 26.2853 104.112 27.352C104.09 28.4187 104.08 29.5493 104.08 30.744C104.08 31.96 104.08 33.1973 104.08 34.456C104.101 35.7147 104.112 36.9093 104.112 38.04C104.133 39.1493 104.154 40.1413 104.176 41.016C104.197 41.8693 104.218 42.5307 104.24 43H100.144ZM94.0956 34.232L102.736 34.008V37.208L94.0956 37.048V34.232ZM92.3356 42.936C92.3569 42.4667 92.3783 41.8373 92.3996 41.048C92.4209 40.2373 92.4316 39.3307 92.4316 38.328C92.4529 37.304 92.4636 36.2267 92.4636 35.096C92.4849 33.9653 92.4956 32.8347 92.4956 31.704C92.4956 30.552 92.4743 29.4107 92.4316 28.28C92.4103 27.128 92.3889 26.0507 92.3676 25.048C92.3463 24.0453 92.3249 23.1707 92.3036 22.424C92.2823 21.6773 92.2609 21.1333 92.2396 20.792L96.2716 20.664C96.2716 20.9413 96.2609 21.4107 96.2396 22.072C96.2396 22.712 96.2396 23.448 96.2396 24.28C96.2396 25.112 96.2289 25.9867 96.2076 26.904C96.2076 27.8 96.1969 28.6747 96.1756 29.528C96.1756 30.36 96.1756 31.096 96.1756 31.736C96.1756 32.2907 96.1756 32.984 96.1756 33.816C96.1969 34.6267 96.2076 35.5013 96.2076 36.44C96.2076 37.3787 96.2076 38.2853 96.2076 39.16C96.2289 40.0133 96.2396 40.7813 96.2396 41.464C96.2609 42.1253 96.2716 42.6053 96.2716 42.904L92.3356 42.936ZM121.049 43.16C120.878 42.008 120.707 40.8027 120.537 39.544C120.366 38.2853 120.185 37.016 119.993 35.736C119.801 34.456 119.587 33.1867 119.353 31.928C119.203 31.032 119.054 30.1573 118.905 29.304C118.777 28.4293 118.649 27.5973 118.521 26.808C118.393 26.0187 118.265 25.2613 118.137 24.536C118.03 23.8107 117.923 23.1387 117.817 22.52L115.705 20.632L120.697 20.44C120.825 21.272 120.963 22.136 121.113 23.032C121.262 23.9067 121.411 24.8133 121.561 25.752C121.731 26.6693 121.902 27.608 122.073 28.568C122.265 29.528 122.457 30.4773 122.649 31.416C122.905 32.8453 123.171 34.2533 123.449 35.64C123.726 37.0053 124.003 38.3173 124.281 39.576C124.558 40.8133 124.814 41.9547 125.049 43L121.049 43.16ZM114.521 38.744V35.608L121.561 35.736V38.52L114.521 38.744ZM115.097 42.808L111.321 42.776C111.555 41.7733 111.79 40.6747 112.025 39.48C112.281 38.2853 112.537 37.0267 112.793 35.704C113.07 34.36 113.347 32.9947 113.625 31.608C113.881 30.328 114.126 29.0587 114.361 27.8C114.617 26.5413 114.851 25.304 115.065 24.088C115.278 22.872 115.491 21.72 115.705 20.632L120.697 20.44L118.393 22.776C118.243 23.544 118.083 24.408 117.913 25.368C117.742 26.328 117.571 27.352 117.401 28.44C117.23 29.5067 117.049 30.6267 116.857 31.8C116.643 33.0373 116.43 34.296 116.217 35.576C116.025 36.8347 115.833 38.072 115.641 39.288C115.47 40.504 115.289 41.6773 115.097 42.808ZM131.965 43.32C131.986 42.6373 131.997 41.8587 131.997 40.984C132.018 40.088 132.029 39.128 132.029 38.104C132.029 37.08 132.029 36.024 132.029 34.936C132.029 33.848 132.029 32.76 132.029 31.672C132.029 30.648 132.029 29.624 132.029 28.6C132.029 27.576 132.029 26.584 132.029 25.624C132.029 24.6427 132.018 23.7253 131.997 22.872C131.997 21.9973 131.997 21.208 131.997 20.504L136.989 20.856C137.159 21.6667 137.33 22.5093 137.501 23.384C137.671 24.2587 137.853 25.1653 138.045 26.104C138.258 27.0213 138.471 27.9493 138.685 28.888C138.898 29.8267 139.101 30.776 139.293 31.736C139.485 32.5467 139.666 33.336 139.837 34.104C140.007 34.872 140.167 35.5867 140.317 36.248C140.487 36.9093 140.637 37.528 140.765 38.104C140.935 37.4 141.106 36.696 141.277 35.992C141.447 35.2667 141.618 34.5413 141.789 33.816C141.959 33.0693 142.119 32.3227 142.269 31.576C142.482 30.6373 142.685 29.7093 142.877 28.792C143.069 27.8533 143.261 26.9147 143.453 25.976C143.666 25.016 143.869 24.0453 144.061 23.064C144.253 22.0827 144.455 21.0693 144.669 20.024L149.661 19.608C149.661 20.12 149.65 20.824 149.629 21.72C149.629 22.616 149.618 23.6187 149.597 24.728C149.597 25.8373 149.597 26.9893 149.597 28.184C149.597 29.3787 149.597 30.5307 149.597 31.64C149.597 32.728 149.597 33.8053 149.597 34.872C149.618 35.9173 149.629 36.9307 149.629 37.912C149.65 38.872 149.661 39.768 149.661 40.6C149.682 41.432 149.693 42.1787 149.693 42.84L146.077 42.584C146.077 42.136 146.077 41.6987 146.077 41.272C146.098 40.824 146.109 40.376 146.109 39.928C146.109 39.4587 146.109 38.9787 146.109 38.488C146.109 37.9973 146.109 37.496 146.109 36.984C146.109 36.472 146.109 35.9387 146.109 35.384C146.109 34.808 146.109 34.2107 146.109 33.592C146.109 32.8667 146.109 32.1307 146.109 31.384C146.109 30.6373 146.109 29.9013 146.109 29.176C146.109 28.4293 146.109 27.6933 146.109 26.968C146.002 27.4373 145.885 27.9387 145.757 28.472C145.65 29.0053 145.533 29.5493 145.405 30.104C145.298 30.6587 145.181 31.224 145.053 31.8C144.946 32.376 144.818 32.9413 144.669 33.496C144.519 34.1787 144.359 34.872 144.189 35.576C144.039 36.2587 143.879 36.9627 143.709 37.688C143.538 38.392 143.357 39.128 143.165 39.896C142.973 40.664 142.781 41.4747 142.589 42.328L138.845 42.168C138.631 41.2507 138.429 40.3973 138.237 39.608C138.045 38.8187 137.863 38.072 137.693 37.368C137.522 36.664 137.351 35.9707 137.181 35.288C137.01 34.6053 136.85 33.944 136.701 33.304C136.551 32.6 136.402 31.928 136.253 31.288C136.103 30.648 135.954 30.0187 135.805 29.4C135.655 28.7813 135.506 28.184 135.357 27.608C135.357 27.736 135.357 27.928 135.357 28.184C135.357 28.4187 135.357 28.728 135.357 29.112C135.357 29.4747 135.357 29.8907 135.357 30.36C135.357 30.8293 135.357 31.3307 135.357 31.864C135.378 32.376 135.389 32.9307 135.389 33.528C135.389 34.168 135.389 34.84 135.389 35.544C135.41 36.2267 135.421 36.92 135.421 37.624C135.421 38.3067 135.421 38.9787 135.421 39.64C135.421 40.28 135.421 40.888 135.421 41.464C135.442 42.04 135.453 42.5627 135.453 43.032L131.965 43.32ZM160.034 36.28L159.906 34.168C161.015 34.168 161.954 34.0827 162.722 33.912C163.511 33.7413 164.13 33.4427 164.578 33.016C165.047 32.568 165.388 31.9493 165.602 31.16C165.815 30.3707 165.922 29.3467 165.922 28.088C165.922 26.7867 165.804 25.7627 165.57 25.016C165.335 24.248 164.94 23.6933 164.386 23.352C163.852 23.0107 163.138 22.84 162.242 22.84C161.794 22.84 161.303 22.872 160.77 22.936C160.258 22.9787 159.682 23.0533 159.042 23.16L157.57 20.184C158.316 20.12 159.052 20.0773 159.778 20.056C160.503 20.0133 161.164 19.992 161.762 19.992C163.618 19.992 165.122 20.216 166.274 20.664C167.426 21.112 168.268 21.9227 168.802 23.096C169.335 24.248 169.602 25.88 169.602 27.992C169.602 29.5067 169.367 30.7973 168.898 31.864C168.428 32.9093 167.756 33.7627 166.882 34.424C166.028 35.064 165.015 35.5333 163.842 35.832C162.69 36.1307 161.42 36.28 160.034 36.28ZM161.826 43.32C161.442 43.32 161.004 43.3093 160.514 43.288C160.044 43.288 159.564 43.2667 159.074 43.224C158.583 43.2027 158.092 43.1813 157.602 43.16L159.298 40.344C159.959 40.408 160.599 40.472 161.218 40.536C161.836 40.5787 162.412 40.6 162.946 40.6C163.522 40.6 164.044 40.5573 164.514 40.472C165.004 40.3867 165.399 40.216 165.698 39.96C165.996 39.6827 166.146 39.2667 166.146 38.712C166.146 38.2427 166.018 37.88 165.762 37.624C165.506 37.3467 165.122 37.1547 164.61 37.048C164.119 36.9413 163.479 36.888 162.69 36.888C162.476 36.888 162.21 36.8987 161.89 36.92C161.591 36.92 161.271 36.92 160.93 36.92C160.61 36.92 160.311 36.9307 160.034 36.952L159.906 34.168C162.402 34.1467 164.364 34.328 165.794 34.712C167.244 35.096 168.279 35.64 168.898 36.344C169.516 37.048 169.826 37.8907 169.826 38.872C169.826 40.0453 169.506 40.9627 168.866 41.624C168.226 42.264 167.308 42.712 166.114 42.968C164.919 43.2027 163.49 43.32 161.826 43.32ZM157.602 43.16C157.602 43.16 157.602 42.84 157.602 42.2C157.623 41.5387 157.644 40.664 157.666 39.576C157.687 38.488 157.698 37.2827 157.698 35.96C157.719 34.616 157.73 33.272 157.73 31.928C157.73 30.5627 157.719 29.1973 157.698 27.832C157.698 26.4453 157.676 25.176 157.634 24.024C157.612 22.8507 157.591 21.9227 157.57 21.24C157.57 20.536 157.57 20.184 157.57 20.184L161.442 20.472C161.442 20.472 161.431 20.7493 161.41 21.304C161.41 21.8373 161.399 22.552 161.378 23.448C161.378 24.3227 161.367 25.2827 161.346 26.328C161.324 27.352 161.303 28.3547 161.282 29.336C161.282 30.3173 161.282 31.1813 161.282 31.928C161.282 32.6747 161.282 33.528 161.282 34.488C161.303 35.448 161.314 36.4187 161.314 37.4C161.335 38.3813 161.346 39.288 161.346 40.12C161.367 40.952 161.378 41.624 161.378 42.136C161.399 42.648 161.41 42.904 161.41 42.904L157.602 43.16ZM175.625 43.224C175.86 42.2213 176.095 41.0907 176.329 39.832C176.585 38.552 176.841 37.208 177.097 35.8C177.375 34.392 177.652 32.9947 177.929 31.608C178.185 30.328 178.431 29.08 178.665 27.864C178.921 26.6267 179.156 25.4213 179.369 24.248C179.583 23.0533 179.796 21.9227 180.009 20.856L185.129 20.44C185.3 21.5493 185.492 22.712 185.705 23.928C185.919 25.1227 186.143 26.3493 186.377 27.608C186.612 28.8667 186.836 30.136 187.049 31.416C187.305 32.8453 187.561 34.232 187.817 35.576C188.095 36.92 188.361 38.1893 188.617 39.384C188.873 40.5787 189.119 41.7093 189.353 42.776L185.385 42.84C185.215 41.6667 185.044 40.472 184.873 39.256C184.703 38.04 184.521 36.824 184.329 35.608C184.159 34.3707 183.977 33.144 183.785 31.928C183.657 31.2667 183.54 30.616 183.433 29.976C183.327 29.3147 183.22 28.6747 183.113 28.056C183.007 27.416 182.9 26.7973 182.793 26.2C182.687 25.6027 182.58 25.0267 182.473 24.472C182.345 25.176 182.207 25.9333 182.057 26.744C181.908 27.5547 181.759 28.3867 181.609 29.24C181.46 30.072 181.311 30.9253 181.161 31.8C180.948 33.0373 180.745 34.3067 180.553 35.608C180.361 36.9093 180.169 38.2 179.977 39.48C179.807 40.7387 179.625 41.9333 179.433 43.064L175.625 43.224ZM178.889 38.648V35.864L185.929 35.608V38.744L178.889 38.648Z" fill="#FAFAFA"/>
</g>
<path d="M12.5911 9.45264C18.7232 6.11314 74.7874 3.33025 59.0194 13.9053C118.88 17.8014 230.891 17.0222 210.568 5" stroke="#FAFAFA" stroke-width="4"/>
<path d="M46.094 55.676V47.336C46.094 47.232 46.138 47.152 46.226 47.096C46.314 47.032 46.418 47 46.538 47C46.834 47 46.982 47.112 46.982 47.336V48.644C47.742 47.484 48.866 46.904 50.354 46.904C51.034 46.904 51.61 47.132 52.082 47.588C52.562 48.036 52.802 48.564 52.802 49.172C52.802 49.884 52.606 50.54 52.214 51.14C51.822 51.732 51.31 52.192 50.678 52.52C50.054 52.848 49.398 53.012 48.71 53.012C48.046 53.012 47.47 52.792 46.982 52.352V55.676C46.982 55.892 46.83 56 46.526 56C46.406 56 46.302 55.972 46.214 55.916C46.134 55.86 46.094 55.78 46.094 55.676ZM46.97 50.636C46.97 51.124 47.162 51.492 47.546 51.74C47.938 51.988 48.326 52.112 48.71 52.112C49.174 52.112 49.646 52 50.126 51.776C50.606 51.552 51.014 51.22 51.35 50.78C51.694 50.332 51.866 49.844 51.866 49.316C51.866 48.772 51.694 48.38 51.35 48.14C51.014 47.9 50.606 47.78 50.126 47.78C49.678 47.78 49.202 47.932 48.698 48.236C48.202 48.532 47.79 48.908 47.462 49.364C47.134 49.812 46.97 50.236 46.97 50.636ZM53.9567 50.024C53.9567 49.336 54.1367 48.744 54.4967 48.248C54.8647 47.744 55.3047 47.38 55.8167 47.156C56.3367 46.932 56.8807 46.82 57.4487 46.82C58.2487 46.82 58.9847 47.124 59.6567 47.732C60.3367 48.332 60.6767 49.092 60.6767 50.012C60.6767 50.884 60.3767 51.632 59.7767 52.256C59.1767 52.872 58.3927 53.18 57.4247 53.18C56.4727 53.18 55.6567 52.872 54.9767 52.256C54.2967 51.632 53.9567 50.888 53.9567 50.024ZM54.8447 50.036C54.8447 50.604 55.1047 51.124 55.6247 51.596C56.1447 52.06 56.7487 52.292 57.4367 52.292C58.0847 52.292 58.6367 52.056 59.0927 51.584C59.5567 51.112 59.7887 50.588 59.7887 50.012C59.7887 49.452 59.5687 48.928 59.1287 48.44C58.6887 47.952 58.1207 47.708 57.4247 47.708C56.6087 47.708 55.9727 47.956 55.5167 48.452C55.0687 48.948 54.8447 49.476 54.8447 50.036ZM62.0896 52.688V47.324C62.0896 47.22 62.1296 47.14 62.2096 47.084C62.2976 47.028 62.4016 47 62.5216 47C62.8256 47 62.9776 47.108 62.9776 47.324V48.272C63.3776 47.84 63.8616 47.5 64.4296 47.252C64.9976 46.996 65.5736 46.868 66.1576 46.868C66.9096 46.868 67.5376 47.104 68.0416 47.576C68.5536 48.04 68.8096 48.648 68.8096 49.4C68.8096 49.472 68.8056 49.84 68.7976 50.504C68.7976 51.16 68.7976 51.88 68.7976 52.664C68.7976 52.768 68.7536 52.852 68.6656 52.916C68.5776 52.972 68.4736 53 68.3536 53C68.0576 53 67.9096 52.888 67.9096 52.664V49.508C67.9096 48.94 67.7056 48.504 67.2976 48.2C66.8976 47.896 66.4816 47.744 66.0496 47.744C65.4656 47.744 64.8656 47.94 64.2496 48.332C63.6416 48.716 63.2176 49.204 62.9776 49.796V52.688C62.9776 52.904 62.8256 53.012 62.5216 53.012C62.4016 53.012 62.2976 52.984 62.2096 52.928C62.1296 52.872 62.0896 52.792 62.0896 52.688ZM69.961 47.444C69.961 47.324 69.989 47.22 70.045 47.132C70.109 47.044 70.193 47 70.297 47H70.705V45.524C70.705 45.42 70.745 45.34 70.825 45.284C70.913 45.228 71.017 45.2 71.137 45.2C71.441 45.2 71.593 45.308 71.593 45.524V47H73.513C73.617 47 73.697 47.044 73.753 47.132C73.809 47.212 73.837 47.312 73.837 47.432C73.837 47.736 73.729 47.888 73.513 47.888H71.593V50.756C71.593 51.652 71.933 52.1 72.613 52.1C72.901 52.1 73.149 52.02 73.357 51.86C73.573 51.7 73.681 51.42 73.681 51.02C73.681 50.908 73.725 50.816 73.813 50.744C73.909 50.672 74.021 50.636 74.149 50.636C74.269 50.636 74.369 50.672 74.449 50.744C74.529 50.808 74.569 50.904 74.569 51.032C74.561 51.664 74.369 52.148 73.993 52.484C73.625 52.82 73.165 52.988 72.613 52.988C71.341 52.988 70.705 52.136 70.705 50.432V47.888H70.297C70.073 47.888 69.961 47.74 69.961 47.444ZM75.4658 49.832C75.4658 49.32 75.5778 48.864 75.8018 48.464C76.0258 48.064 76.3218 47.748 76.6898 47.516C77.0578 47.284 77.4538 47.112 77.8778 47C78.3018 46.88 78.7338 46.82 79.1738 46.82C79.9578 46.82 80.5658 46.992 80.9978 47.336C81.4298 47.672 81.6458 48.088 81.6458 48.584C81.6458 49.12 81.3938 49.576 80.8898 49.952C80.3858 50.328 79.6698 50.516 78.7418 50.516C77.9098 50.516 77.1178 50.396 76.3658 50.156C76.4538 50.748 76.7298 51.244 77.1938 51.644C77.6578 52.044 78.2298 52.244 78.9098 52.244C79.2698 52.244 79.6418 52.188 80.0258 52.076C80.4178 51.964 80.7258 51.804 80.9498 51.596C80.9818 51.532 81.0458 51.5 81.1418 51.5C81.2538 51.5 81.3738 51.552 81.5018 51.656C81.6298 51.752 81.6938 51.852 81.6938 51.956C81.4938 52.364 81.1018 52.664 80.5178 52.856C79.9418 53.04 79.3818 53.132 78.8378 53.132C77.8538 53.132 77.0458 52.808 76.4138 52.16C75.7818 51.512 75.4658 50.736 75.4658 49.832ZM76.4138 49.232C77.0138 49.496 77.7578 49.628 78.6458 49.628C79.3418 49.628 79.8698 49.52 80.2298 49.304C80.5898 49.08 80.7698 48.832 80.7698 48.56C80.7698 48.32 80.6178 48.12 80.3138 47.96C80.0178 47.792 79.5738 47.708 78.9818 47.708C78.3418 47.708 77.8058 47.852 77.3738 48.14C76.9498 48.42 76.6298 48.784 76.4138 49.232ZM85.9888 50.816C85.9888 49.744 86.4088 48.82 87.2488 48.044C88.0888 47.268 89.0408 46.88 90.1048 46.88C90.8328 46.88 91.4528 47.156 91.9648 47.708C92.4768 48.26 92.7328 48.888 92.7328 49.592L92.7208 52.736C92.7208 52.84 92.6688 52.924 92.5648 52.988C92.4688 53.044 92.3608 53.072 92.2408 53.072C91.9768 53.072 91.8448 52.96 91.8448 52.736V50.708C91.1968 51.548 90.5768 52.156 89.9848 52.532C89.4008 52.908 88.7968 53.096 88.1728 53.096C87.5968 53.096 87.0888 52.864 86.6488 52.4C86.2088 51.928 85.9888 51.4 85.9888 50.816ZM86.8528 50.84C86.8528 51.296 87.0128 51.644 87.3328 51.884C87.6528 52.116 87.9928 52.232 88.3528 52.232C88.7688 52.232 89.2448 52.028 89.7808 51.62C90.3168 51.204 90.7608 50.744 91.1128 50.24C91.4728 49.728 91.6528 49.328 91.6528 49.04C91.6528 48.8 91.5808 48.588 91.4368 48.404C91.3008 48.212 91.1288 48.072 90.9208 47.984C90.7208 47.896 90.5368 47.832 90.3688 47.792C90.2008 47.744 90.0608 47.72 89.9488 47.72C89.1648 47.72 88.4528 48.036 87.8128 48.668C87.1728 49.292 86.8528 50.016 86.8528 50.84ZM97.1914 50.024C97.1914 49.336 97.3754 48.744 97.7434 48.248C98.1114 47.744 98.5554 47.38 99.0754 47.156C99.5954 46.932 100.139 46.82 100.707 46.82C101.427 46.82 102.095 47.068 102.711 47.564C102.775 47.62 102.807 47.692 102.807 47.78C102.807 47.908 102.755 48.028 102.651 48.14C102.547 48.244 102.439 48.296 102.327 48.296C102.247 48.296 102.179 48.268 102.123 48.212C101.739 47.876 101.259 47.708 100.683 47.708C99.8674 47.708 99.2274 47.956 98.7634 48.452C98.3074 48.948 98.0794 49.476 98.0794 50.036C98.0794 50.604 98.3434 51.124 98.8714 51.596C99.3994 52.06 100.007 52.292 100.695 52.292C101.399 52.292 101.971 52.04 102.411 51.536C102.499 51.448 102.575 51.404 102.639 51.404C102.759 51.404 102.875 51.464 102.987 51.584C103.099 51.704 103.155 51.82 103.155 51.932C103.155 52.004 103.127 52.068 103.071 52.124C102.455 52.828 101.683 53.18 100.755 53.18C99.7714 53.18 98.9314 52.872 98.2354 52.256C97.5394 51.632 97.1914 50.888 97.1914 50.024ZM104.352 52.688V44.312C104.352 44.208 104.392 44.128 104.472 44.072C104.56 44.016 104.664 43.988 104.784 43.988C105.088 43.988 105.24 44.096 105.24 44.312V48.296C105.632 47.88 106.112 47.552 106.68 47.312C107.248 47.072 107.828 46.952 108.42 46.952C109.18 46.952 109.812 47.176 110.316 47.624C110.82 48.064 111.072 48.656 111.072 49.4C111.072 49.472 111.068 49.84 111.06 50.504C111.06 51.16 111.06 51.88 111.06 52.664C111.06 52.768 111.016 52.852 110.928 52.916C110.84 52.972 110.736 53 110.616 53C110.32 53 110.172 52.888 110.172 52.664V49.508C110.172 49.116 110.06 48.788 109.836 48.524C109.62 48.252 109.38 48.068 109.116 47.972C108.852 47.876 108.584 47.828 108.312 47.828C107.72 47.828 107.116 48.012 106.5 48.38C105.892 48.748 105.472 49.22 105.24 49.796V52.688C105.24 52.904 105.088 53.012 104.784 53.012C104.664 53.012 104.56 52.984 104.472 52.928C104.392 52.872 104.352 52.792 104.352 52.688ZM112.402 50.816C112.402 49.744 112.822 48.82 113.662 48.044C114.502 47.268 115.454 46.88 116.518 46.88C117.246 46.88 117.866 47.156 118.378 47.708C118.89 48.26 119.146 48.888 119.146 49.592L119.134 52.736C119.134 52.84 119.082 52.924 118.978 52.988C118.882 53.044 118.774 53.072 118.654 53.072C118.39 53.072 118.258 52.96 118.258 52.736V50.708C117.61 51.548 116.99 52.156 116.398 52.532C115.814 52.908 115.21 53.096 114.586 53.096C114.01 53.096 113.502 52.864 113.062 52.4C112.622 51.928 112.402 51.4 112.402 50.816ZM113.266 50.84C113.266 51.296 113.426 51.644 113.746 51.884C114.066 52.116 114.406 52.232 114.766 52.232C115.182 52.232 115.658 52.028 116.194 51.62C116.73 51.204 117.174 50.744 117.526 50.24C117.886 49.728 118.066 49.328 118.066 49.04C118.066 48.8 117.994 48.588 117.85 48.404C117.714 48.212 117.542 48.072 117.334 47.984C117.134 47.896 116.95 47.832 116.782 47.792C116.614 47.744 116.474 47.72 116.362 47.72C115.578 47.72 114.866 48.036 114.226 48.668C113.586 49.292 113.266 50.016 113.266 50.84ZM120.722 52.664V47.348C120.722 47.132 120.874 47.024 121.178 47.024C121.298 47.024 121.398 47.052 121.478 47.108C121.566 47.164 121.61 47.244 121.61 47.348V47.984C121.866 47.68 122.178 47.42 122.546 47.204C122.914 46.988 123.278 46.88 123.638 46.88C124.622 46.88 125.322 47.236 125.738 47.948C125.986 47.604 126.302 47.34 126.686 47.156C127.078 46.972 127.474 46.88 127.874 46.88C128.618 46.88 129.206 47.092 129.638 47.516C130.07 47.94 130.286 48.528 130.286 49.28C130.286 49.352 130.282 49.748 130.274 50.468C130.274 51.18 130.274 51.928 130.274 52.712C130.274 52.816 130.23 52.9 130.142 52.964C130.054 53.02 129.954 53.048 129.842 53.048C129.546 53.048 129.398 52.936 129.398 52.712V49.388C129.398 48.308 128.906 47.768 127.922 47.768C127.778 47.768 127.63 47.784 127.478 47.816C127.334 47.84 127.174 47.892 126.998 47.972C126.83 48.052 126.678 48.152 126.542 48.272C126.406 48.384 126.294 48.54 126.206 48.74C126.118 48.94 126.074 49.164 126.074 49.412C126.074 49.724 126.07 50.12 126.062 50.6C126.062 51.08 126.062 51.784 126.062 52.712C126.062 52.816 126.014 52.9 125.918 52.964C125.83 53.02 125.726 53.048 125.606 53.048C125.326 53.048 125.186 52.936 125.186 52.712V49.388C125.186 48.804 125.046 48.388 124.766 48.14C124.486 47.892 124.126 47.768 123.686 47.768C123.262 47.768 122.85 47.928 122.45 48.248C122.058 48.568 121.778 48.94 121.61 49.364V52.664C121.61 52.768 121.566 52.852 121.478 52.916C121.39 52.972 121.286 53 121.166 53C120.87 53 120.722 52.888 120.722 52.664ZM131.896 52.664V44.312C131.896 44.104 132.048 44 132.352 44C132.64 44 132.784 44.104 132.784 44.312V47.588C133.28 47.116 133.86 46.88 134.524 46.88C135.588 46.88 136.54 47.268 137.38 48.044C138.22 48.82 138.64 49.744 138.64 50.816C138.64 51.4 138.42 51.928 137.98 52.4C137.54 52.864 137.032 53.096 136.456 53.096C135.832 53.096 135.224 52.908 134.632 52.532C134.048 52.156 133.432 51.548 132.784 50.708V52.664C132.784 52.768 132.74 52.852 132.652 52.916C132.564 52.972 132.46 53 132.34 53C132.044 53 131.896 52.888 131.896 52.664ZM132.976 49.04C132.976 49.328 133.152 49.728 133.504 50.24C133.864 50.744 134.312 51.204 134.848 51.62C135.384 52.028 135.86 52.232 136.276 52.232C136.636 52.232 136.976 52.116 137.296 51.884C137.616 51.644 137.776 51.296 137.776 50.84C137.776 50.016 137.456 49.292 136.816 48.668C136.176 48.036 135.464 47.72 134.68 47.72C134.568 47.72 134.428 47.744 134.26 47.792C134.092 47.832 133.904 47.896 133.696 47.984C133.496 48.072 133.324 48.212 133.18 48.404C133.044 48.588 132.976 48.8 132.976 49.04ZM139.794 49.832C139.794 49.32 139.906 48.864 140.13 48.464C140.354 48.064 140.65 47.748 141.018 47.516C141.386 47.284 141.782 47.112 142.206 47C142.63 46.88 143.062 46.82 143.502 46.82C144.286 46.82 144.894 46.992 145.326 47.336C145.758 47.672 145.974 48.088 145.974 48.584C145.974 49.12 145.722 49.576 145.218 49.952C144.714 50.328 143.998 50.516 143.07 50.516C142.238 50.516 141.446 50.396 140.694 50.156C140.782 50.748 141.058 51.244 141.522 51.644C141.986 52.044 142.558 52.244 143.238 52.244C143.598 52.244 143.97 52.188 144.354 52.076C144.746 51.964 145.054 51.804 145.278 51.596C145.31 51.532 145.374 51.5 145.47 51.5C145.582 51.5 145.702 51.552 145.83 51.656C145.958 51.752 146.022 51.852 146.022 51.956C145.822 52.364 145.43 52.664 144.846 52.856C144.27 53.04 143.71 53.132 143.166 53.132C142.182 53.132 141.374 52.808 140.742 52.16C140.11 51.512 139.794 50.736 139.794 49.832ZM140.742 49.232C141.342 49.496 142.086 49.628 142.974 49.628C143.67 49.628 144.198 49.52 144.558 49.304C144.918 49.08 145.098 48.832 145.098 48.56C145.098 48.32 144.946 48.12 144.642 47.96C144.346 47.792 143.902 47.708 143.31 47.708C142.67 47.708 142.134 47.852 141.702 48.14C141.278 48.42 140.958 48.784 140.742 49.232ZM147.182 50.816C147.182 49.744 147.602 48.82 148.442 48.044C149.282 47.268 150.234 46.88 151.298 46.88C152.026 46.88 152.646 47.156 153.158 47.708C153.67 48.26 153.926 48.888 153.926 49.592L153.914 52.736C153.914 52.84 153.862 52.924 153.758 52.988C153.662 53.044 153.554 53.072 153.434 53.072C153.17 53.072 153.038 52.96 153.038 52.736V50.708C152.39 51.548 151.77 52.156 151.178 52.532C150.594 52.908 149.99 53.096 149.366 53.096C148.79 53.096 148.282 52.864 147.842 52.4C147.402 51.928 147.182 51.4 147.182 50.816ZM148.046 50.84C148.046 51.296 148.206 51.644 148.526 51.884C148.846 52.116 149.186 52.232 149.546 52.232C149.962 52.232 150.438 52.028 150.974 51.62C151.51 51.204 151.954 50.744 152.306 50.24C152.666 49.728 152.846 49.328 152.846 49.04C152.846 48.8 152.774 48.588 152.63 48.404C152.494 48.212 152.322 48.072 152.114 47.984C151.914 47.896 151.73 47.832 151.562 47.792C151.394 47.744 151.254 47.72 151.142 47.72C150.358 47.72 149.646 48.036 149.006 48.668C148.366 49.292 148.046 50.016 148.046 50.84ZM155.502 52.664V47.348C155.502 47.132 155.654 47.024 155.958 47.024C156.078 47.024 156.178 47.052 156.258 47.108C156.346 47.164 156.39 47.244 156.39 47.348V48.848C156.694 48.192 157.03 47.696 157.398 47.36C157.774 47.024 158.27 46.856 158.886 46.856C159.318 46.856 159.754 46.912 160.194 47.024C160.426 47.136 160.542 47.288 160.542 47.48C160.542 47.616 160.514 47.712 160.458 47.768C160.402 47.824 160.31 47.86 160.182 47.876C159.774 47.78 159.442 47.732 159.186 47.732C158.594 47.732 158.054 48.024 157.566 48.608C157.078 49.192 156.686 49.952 156.39 50.888V52.664C156.39 52.768 156.346 52.852 156.258 52.916C156.17 52.972 156.066 53 155.946 53C155.65 53 155.502 52.888 155.502 52.664Z" fill="#FAFAFA"/>
<defs>
<filter id="filter0_d_772_1332" x="16.6616" y="19.608" width="176.692" height="31.712" filterUnits="userSpaceOnUse" color-interpolation-filters="sRGB">
<feFlood flood-opacity="0" result="BackgroundImageFix"/>
<feColorMatrix in="SourceAlpha" type="matrix" values="0 0 0 0 0 0 0 0 0 0 0 0 0 0 0 0 0 0 127 0" result="hardAlpha"/>
<feOffset dy="4"/>
<feGaussianBlur stdDeviation="2"/>
<feComposite in2="hardAlpha" operator="out"/>
<feColorMatrix type="matrix" values="0 0 0 0 0 0 0 0 0 0 0 0 0 0 0 0 0 0 0.25 0"/>
<feBlend mode="normal" in2="BackgroundImageFix" result="effect1_dropShadow_772_1332"/>
<feBlend mode="normal" in="SourceGraphic" in2="effect1_dropShadow_772_1332" result="shape"/>
</filter>
</defs>
</svg>
