<svg width="27" height="24" viewBox="0 0 27 24" fill="none" xmlns="http://www.w3.org/2000/svg">
<path d="M9.70312 2.4H17.2969C17.5289 2.4 17.7188 2.58 17.7188 2.8V4.8H9.28125V2.8C9.28125 2.58 9.47109 2.4 9.70312 2.4ZM6.75 2.8V4.8H3.375C1.51348 4.8 0 6.235 0 8V12.8H10.125H16.875H27V8C27 6.235 25.4865 4.8 23.625 4.8H20.25V2.8C20.25 1.255 18.9264 0 17.2969 0H9.70312C8.07363 0 6.75 1.255 6.75 2.8ZM27 14.4H16.875V16C16.875 16.885 16.1209 17.6 15.1875 17.6H11.8125C10.8791 17.6 10.125 16.885 10.125 16V14.4H0V20.8C0 22.565 1.51348 24 3.375 24H23.625C25.4865 24 27 22.565 27 20.8V14.4Z" fill="#F0ECE5"/>
</svg>
