<?xml version="1.0" standalone="no"?><svg xmlns="http://www.w3.org/2000/svg" viewBox="0 0 1440 320"><path fill="#ffffff" fill-opacity="1" d="M0,320L26.7,314.7C53.3,309,107,299,160,266.7C213.3,235,267,181,320,154.7C373.3,128,427,128,480,154.7C533.3,181,587,235,640,261.3C693.3,288,747,288,800,277.3C853.3,267,907,245,960,229.3C1013.3,213,1067,203,1120,213.3C1173.3,224,1227,256,1280,245.3C1333.3,235,1387,181,1413,154.7L1440,128L1440,320L1413.3,320C1386.7,320,1333,320,1280,320C1226.7,320,1173,320,1120,320C1066.7,320,1013,320,960,320C906.7,320,853,320,800,320C746.7,320,693,320,640,320C586.7,320,533,320,480,320C426.7,320,373,320,320,320C266.7,320,213,320,160,320C106.7,320,53,320,27,320L0,320Z"></path></svg>